<?xml version="1.0" standalone="no"?>
<!DOCTYPE svg PUBLIC "-//W3C//DTD SVG 1.1//EN" "http://www.w3.org/Graphics/SVG/1.1/DTD/svg11.dtd" >
<!--
2013-9-30: Created.
-->
<svg>
<metadata>
Created by iconfont
</metadata>
<defs>

<font id="iconfont" horiz-adv-x="1024" >
  <font-face
    font-family="iconfont"
    font-weight="500"
    font-stretch="normal"
    units-per-em="1024"
    ascent="896"
    descent="-128"
  />
    <missing-glyph />
    
    <glyph glyph-name="x" unicode="x" horiz-adv-x="1001"
d="M281 543q-27 -1 -53 -1h-83q-18 0 -36.5 -6t-32.5 -18.5t-23 -32t-9 -45.5v-76h912v41q0 16 -0.5 30t-0.5 18q0 13 -5 29t-17 29.5t-31.5 22.5t-49.5 9h-133v-97h-438v97zM955 310v-52q0 -23 0.5 -52t0.5 -58t-10.5 -47.5t-26 -30t-33 -16t-31.5 -4.5q-14 -1 -29.5 -0.5
t-29.5 0.5h-32l-45 128h-439l-44 -128h-29h-34q-20 0 -45 1q-25 0 -41 9.5t-25.5 23t-13.5 29.5t-4 30v167h911zM163 247q-12 0 -21 -8.5t-9 -21.5t9 -21.5t21 -8.5q13 0 22 8.5t9 21.5t-9 21.5t-22 8.5zM316 123q-8 -26 -14 -48q-5 -19 -10.5 -37t-7.5 -25t-3 -15t1 -14.5
t9.5 -10.5t21.5 -4h37h67h81h80h64h36q23 0 34 12t2 38q-5 13 -9.5 30.5t-9.5 34.5q-5 19 -11 39h-368zM336 498v228q0 11 2.5 23t10 21.5t20.5 15.5t34 6h188q31 0 51.5 -14.5t20.5 -52.5v-227h-327z" />
    

    
    <glyph glyph-name="jinggao1" unicode="&#58880;" d="M515.1578 628.6572c-180.551 0-326.9048-146.3678-326.9048-326.8944 0-180.5406 146.3538-326.9064 326.9048-326.9064 180.547 0 326.9028 146.3668 326.9028 326.9064C842.0606 482.2884 695.7048 628.6572 515.1578 628.6572zM551.4787 120.1389h-72.64372594657203V192.78169401146022h72.64372594657203V120.13894579475118zM551.4787 229.1051h-72.64372594657203V519.6750603091104h72.64372594657203V229.10506676473346z"  horiz-adv-x="1000" />

    
    <glyph glyph-name="anquanzhongxin" unicode="&#59048;" d="M868.096 389.024h-89.088V589.408C779.136 712.352 679.488 812 556.48 812h-88.96C344.512 812 244.864 712.352 244.864 589.408v-200.384H155.84C106.624 389.024 66.752 349.152 66.752 300v-333.952C66.752-132.256 146.496-212 244.864-212h534.272c98.368 0 178.112 79.744 178.112 178.048V300C957.248 349.152 917.376 389.024 868.096 389.024zM305.344 588.448c0 91.328 73.984 165.376 165.376 165.376h82.688c91.392 0 165.376-74.048 165.376-165.376v-197.632H305.344V588.448zM763.136-149.152H260.864c-69.376 0-125.632 53.12-125.632 122.496l-0.384 299.52c0 23.104 18.752 54.272 41.856 54.272H839.68c23.04 0 41.792-18.752 41.792-41.856l0.96-311.936C882.496-96.032 832.512-149.152 763.136-149.152zM510.656 215.136c-48.384 0-87.68-39.232-87.68-87.744 0-40 26.88-73.6 63.552-84.096v-67.008c0-11.008 10.816-20.032 24.128-20.032 13.376 0 24.192 9.024 24.192 20.032v67.008c36.672 10.496 63.552 44.096 63.552 84.096C598.4 175.904 558.976 215.136 510.656 215.136zM510.656 81.888c-25.152 0-45.568 20.352-45.568 45.504 0 25.344 20.416 45.632 45.568 45.632 25.216 0 45.568-20.288 45.568-45.632C556.096 102.24 535.808 81.888 510.656 81.888z"  horiz-adv-x="1024" />

    
    <glyph glyph-name="chakan" unicode="&#58921;" d="M512.325632 567.301888c-245.825536 0-450.658304-289.71008-450.658304-289.71008S184.579072-12.117248 512.325632-12.117248 962.983936 277.591808 962.983936 277.591808 758.150144 567.301888 512.325632 567.301888zM512.325632 103.787264c-124.484608 0-225.329152 77.802496-225.329152 173.804544 0 96.00512 100.844544 173.83936 225.329152 173.83936 124.422144 0 225.329152-77.83424 225.329152-173.83936C737.654784 181.588736 636.747776 103.787264 512.325632 103.787264zM512.325632 393.463552c-62.242816 0-112.664576-51.868672-112.664576-115.871744 0-64.001024 50.422784-115.868672 112.664576-115.868672 62.240768 0 112.663552 51.867648 112.663552 115.868672C624.989184 341.59488 574.5664 393.463552 512.325632 393.463552z"  horiz-adv-x="1024" />

    
    <glyph glyph-name="sina" unicode="&#59086;" d="M358.36416 212.142848c-25.598976-2.701312-43.9296-24.988672-43.9296-46.327808 0-21.387264 20.608-36.160512 46.220288-33.193984 25.505792 2.90816 46.206976 22.660096 46.206976 43.942912C406.8608 198.00448 387.748864 214.947584 358.36416 212.142848zM423.32672 229.77408c-8.77568-6.354944-10.575872-18.532352-5.797888-26.10176 4.580352-7.730176 15.249408-8.631296 23.90528-2.171904 8.470528 6.672384 11.766784 18.31936 7.174144 26.10176C444.028928 235.173632 433.491968 237.343488 423.32672 229.77408zM512.37888 809.284352c-281.345024 0-509.877248-228.242432-509.877248-509.771776 0-281.412608 228.532224-509.4912 509.877248-509.4912 281.556992 0 509.771776 228.077568 509.771776 509.4912C1022.150656 581.04192 793.935872 809.284352 512.37888 809.284352zM791.022592 171.694848c-56.172544-119.337984-241.476608-177.417216-378.761216-166.668288-130.505728 10.27072-298.285056 53.576704-315.625472 211.510272 0 0-9.15968 71.514112 60.17024 164.061184 0 0 99.720192 139.293696 215.906304 179.028992 116.251648 39.576576 129.792-27.398144 129.792-66.947072-6.167552-33.56672-17.723392-53.28896 25.91744-39.734272 0 0 114.251776 52.99712 161.293312 5.983232 37.935104-37.986304 6.274048-90.164224 6.274048-90.164224s-15.751168-17.444864 16.623616-23.745536C745.095168 338.559744 847.223808 291.252992 791.022592 171.694848zM678.358016 501.467904c-12.442624 0-22.421504 10.059776-22.421504 22.39488 0 12.54912 9.97888 22.607872 22.421504 22.607872 0 0 140.063744 25.916416 123.332608-124.630016 0-0.899072-0.106496-1.589248-0.29184-2.382848-1.588224-10.642432-10.957824-18.82112-22.024192-18.82112-12.468224 0-22.607872 9.979904-22.607872 22.421504C756.767744 423.058176 778.97728 523.650816 678.358016 501.467904zM914.965504 396.480256c-3.68128-54.214656-16.360448-35.233792-31.396864-35.233792-17.999872 0-32.560128 9.079808-32.560128 27.107328 0 15.644672 6.458368 28.7488 6.458368 28.7488 1.906688 6.592512 17.155072 46.061568-10.057728 107.131904-49.794048 83.678208-150.122496 84.207616-161.982464 79.41632-11.964416-4.658176-29.594624-7.411712-29.594624-7.411712-18.132992 0-32.6656 14.480384-32.6656 32.401408 0 15.03744 10.057728 27.505664 23.795712 31.39584 0 0 0.319488 0.054272 0.7936 0.15872 1.006592 0.211968 2.013184 0.370688 3.125248 0.477184 13.924352 2.700288 63.7184 21.758976 112.161792 10.42944 86.669312-20.224 205.632512-111.977472 152.109056-274.620416L914.965504 396.48128zM422.426624 372.814592c-136.30464-6.247424-246.46656-79.258624-246.46656-170.307584 0-90.957824 110.162944-159.309824 246.46656-152.956928 136.383488 6.196224 246.772736 91.593728 246.772736 182.500352C669.19936 322.940672 558.810112 379.115264 422.426624 372.814592zM515.263488 143.790848c-41.732096-53.894144-124.324864-80.1536-204.522496-36.742144-38.146048 20.703232-36.769792 61.361152-36.769792 61.361152s-15.828992 128.428032 121.2416 144.446464C532.497408 328.817408 557.011968 197.688064 515.263488 143.790848z"  horiz-adv-x="1024" />

    
    <glyph glyph-name="bofang" unicode="&#59055;" d="M365.247273-130.717765l0.429806-0.429789L749.038638 252.176808l-0.082891 0.085958c12.058111 11.938913 19.543903 28.509311 19.543903 46.819328 0 20.467147-9.332935 38.755676-23.973977 50.826596L376.016989 718.403299c-11.850371 17.530258-31.901855 29.067013-54.64372 29.067013-36.375933 0-65.872919-29.481452-65.872919-65.855894l0-763.213485c0-36.374442 29.496986-65.87022 65.872919-65.87022C338.231906-147.469288 353.591338-141.132976 365.247273-130.717765L365.247273-130.717765 365.247273-130.717765z"  horiz-adv-x="1024" />

    
    <glyph glyph-name="bofang1" unicode="&#59056;" d="M511.978679 812c-284.064214 0-511.605555-225.13203-511.605555-508.876424s227.541341-515.123576 511.605555-515.123576c284.085535 0 511.626877 231.400504 511.626877 515.123576S796.064214 812 511.978679 812zM511.317717-134.603536c-241.698711 0-434.806088 197.13711-434.806088 438.537323 0 241.421534 193.086056 432.055635 434.806088 432.055635 241.698711 0 434.784767-190.634102 434.784767-432.055635C946.081163 62.533575 753.016428-134.603536 511.317717-134.603536zM463.323381 486.828242c-9.722531 8.166073-26.545068 8.166073-36.267599 0l0-374.679909c9.722531-8.187395 26.545068-8.187395 36.267599 0l212.893581 172.916068c9.70121 8.166073 9.70121 21.406625 0 29.572699L463.323381 486.828242z"  horiz-adv-x="1024" />

    
    <glyph glyph-name="yanqing" unicode="&#59039;" d="M512.853333 608.599467c-187.170133 0-333.073067-117.1456-512-307.080533 154.1632-162.423467 283.528533-307.319467 512-307.319467s396.3904 183.432533 512 303.889067C906.496 439.1616 738.56 608.599467 512.853333 608.599467zM512.853333 28.3328c-202.820267 0-325.256533 125.7984-464.930133 273.152 166.1952 173.294933 298.3424 272.981333 464.930133 272.981333 197.2224 0 351.351467-142.216533 466.039467-275.012267C866.0992 181.8304 713.403733 28.3328 512.853333 28.3328zM512.853333 506.1824c-112.930133 0-204.8-91.869867-204.8-204.782933 0-112.930133 91.869867-204.8 204.8-204.8s204.8 91.869867 204.8 204.8C717.653333 414.312533 625.783467 506.1824 512.853333 506.1824zM512.853333 130.7328c-94.1056 0-170.666667 76.561067-170.666667 170.666667s76.561067 170.6496 170.666667 170.6496 170.666667-76.544 170.666667-170.6496S606.941867 130.7328 512.853333 130.7328zM512.853333 420.866133c-65.860267 0-119.466667-53.6064-119.466667-119.466667s53.6064-119.466667 119.466667-119.466667 119.466667 53.6064 119.466667 119.466667S578.7136 420.866133 512.853333 420.866133zM512.853333 216.066133c-47.0528 0-85.333333 38.280533-85.333333 85.333333s38.280533 85.333333 85.333333 85.333333 85.333333-38.280533 85.333333-85.333333S559.906133 216.066133 512.853333 216.066133z"  horiz-adv-x="1025" />

    
    <glyph glyph-name="zuire" unicode="&#59118;" d="M832.642 404.009c-45.972 76.892-33.074 124.968-32.708 126.994 2.627 14.349-2.869 28.878-14.285 37.952-11.297 8.894-27.231 10.733-39.992 4.907-2.747-1.226-67.342-20.676-92.189-107.867-3.358-11.896-6.349-29.735-8.729-43.163-3.725 6.93-6.9 13.244-9.526 18.886C573.368 576.186 601.024 734.75 602.184 741.435c2.623 13.244-1.954 27.16-11.967 36.359-9.891 9.074-24.118 12.385-37.059 8.769-8-2.268-196.655-59.353-241.16-299.408-14.775-79.651-2.184-154.152 6.607-202.1-10.44 10.301-20.331 22.994-30.343 38.814-23.81 37.648-46.965 100.748-47.148 101.545-4.09 15.454-16.972 26.796-32.969 28.881-15.935 1.593-31.197-6.132-38.77-19.744-2.991-5.334-67.814-125.827-67.814-243.923 0-222.331 161.347-378.634 390.603-378.634 233.163 0 397.316 156.303 397.316 378.634C889.481 282.358 876.783 330.246 832.642 404.009zM492.165-119.809c-184.075 0-322.742 133.479-322.742 310.378 0 42.611 17.354 113.894 30.052 149.886 5.922-12.693 11.845-23.853 17.767-33.231 74.945-129.618 144.635-132.911 148.42-133.83 13.92-3.311 23.795 1.41 33.319 12.325 9.586 10.977 12.274 21.159 7.082 34.772-0.424 1.227-50.626 127.537-27.548 252.133 21.736 116.93 106.355 204.827 151.11 235.056-15.847-99.276 4.439-221.69 39.913-298.887 23.259-50.403 74.237-108.179 80.038-116.335 9.831-14.041 28.694-20.051 44.813-14.287 16.485 5.826 21.964 22.076 20.864 39.549-0.061 0.734-17.125 74.146 18.394 157.314 1.221 3.986 2.442 7.97 3.844 11.772 8.365-29.37 16.163-94.322 33.319-123.203 36.39-60.825 50.874-96.391 50.874-173.033C821.684 13.669 680.149-119.809 492.165-119.809z"  horiz-adv-x="1024" />

    
    <glyph glyph-name="shouji" unicode="&#59000;" d="M820.409449 14.771654q0-25.19685-10.07874-46.866142t-27.716535-38.299213-41.322835-26.204724-50.897638-9.574803l-357.795276 0q-27.212598 0-50.897638 9.574803t-41.322835 26.204724-27.716535 38.299213-10.07874 46.866142l0 675.27559q0 25.19685 10.07874 47.370079t27.716535 38.80315 41.322835 26.204724 50.897638 9.574803l357.795276 0q27.212598 0 50.897638-9.574803t41.322835-26.204724 27.716535-38.80315 10.07874-47.370079l0-675.27559zM738.771654 641.66929l-455.559055 0 0-577.51181 455.559055 0 0 577.51181zM510.992126 35.937008q-21.165354 0-36.787402-15.11811t-15.622047-37.291339q0-21.165354 15.622047-36.787402t36.787402-15.622047q22.173228 0 37.291339 15.622047t15.11811 36.787402q0 22.173228-15.11811 37.291339t-37.291339 15.11811zM591.622047 727.338582q0 8.062992-5.03937 12.598425t-11.086614 4.535433l-128 0q-5.03937 0-10.582677-4.535433t-5.543307-12.598425 5.03937-12.598425 11.086614-4.535433l128 0q6.047244 0 11.086614 4.535433t5.03937 12.598425z"  horiz-adv-x="1024" />

    
    <glyph glyph-name="xiazai" unicode="&#58960;" d="M182.217576 313.329587l288.938692-288.926412c22.534226-22.534226 59.139935-22.534226 81.681324 0l288.932552 288.926412c22.540366 22.534226 22.540366 59.140958 0 81.672114-22.583344 22.586414-59.137889 22.586414-81.722256 0L569.816289 204.784428 569.816289 700.855644c0 31.950689-25.867134 57.763588-57.81987 57.763588-31.946596 0-57.81987-25.813922-57.81987-57.763588l0-496.071216L263.949043 395.002724c-11.263531 11.320836-26.075889 16.924461-40.838104 16.924461-14.811334 0-29.621645-5.603625-40.892339-16.924461C159.685397 372.470545 159.685397 335.864836 182.217576 313.329587M945.354314-97.261793c0-33.853016-27.458375-61.358463-61.416791-61.358463L140.061454-158.620255c-33.965579 0-61.417815 27.505447-61.417815 61.358463l0 0c0 33.960463 27.451212 61.464887 61.417815 61.464887l743.878115 0C917.895939-35.796906 945.354314-63.30133 945.354314-97.261793L945.354314-97.261793 945.354314-97.261793z"  horiz-adv-x="1024" />

    
    <glyph glyph-name="androidup" unicode="&#59083;" d="M374.323872 721.431262l43.264363-62.71946c28.390607 11.616572 59.802014 18.069541 92.836385 18.069541 34.81083 0 67.808362-7.163143 97.379864-19.980054l45.279253 65.640999c1.880837 2.723018 5.640464 3.416819 8.370645 1.537006l1.096984-0.75827c2.724041-1.879813 3.411703-5.646604 1.532913-8.369621l-44.0124-63.802118c63.49922-31.953759 108.898199-90.787726 118.30136-159.965272L282.476001 491.084013c9.621125 70.7606 56.893778 130.692574 122.673947 162.113191l-41.830711 60.644195c-1.87879 2.723018-1.187035 6.489808 1.539053 8.369621l1.096984 0.75827C368.682385 724.848081 372.446106 724.156326 374.323872 721.431262L374.323872 721.431262zM610.535689 605.074184c12.545734 0 22.714328-10.169617 22.714328-22.713304 0-12.543687-10.169617-22.723537-22.714328-22.723537s-22.722514 10.17985-22.722514 22.723537C587.813175 594.904567 597.989955 605.074184 610.535689 605.074184L610.535689 605.074184zM414.433382 605.074184c12.545734 0 22.715351-10.169617 22.715351-22.713304 0-12.543687-10.169617-22.723537-22.715351-22.723537-12.547781 0-22.718421 10.17985-22.718421 22.723537C391.713938 594.904567 401.885602 605.074184 414.433382 605.074184L414.433382 605.074184zM195.373201 458.039409l10.07445 0c24.924669 0 45.320185-26.103518 45.320185-58.013275L250.767835 213.905156c0-31.91078-20.395516-58.014298-45.320185-58.014298l-10.07445 0c-24.928762 0-45.320185 26.104541-45.320185 58.014298L150.053016 400.025111C150.053016 431.935891 170.444439 458.039409 195.373201 458.039409L195.373201 458.039409zM818.55235 456.930145l10.07138 0c24.932856 0 45.321208-26.103518 45.321208-58.008158l0-186.124048c0-31.91078-20.388353-58.012252-45.321208-58.012252l-10.07138 0c-24.926716 0-45.323255 26.102495-45.323255 58.012252L773.229095 398.921987C773.229095 430.826628 793.625634 456.930145 818.55235 456.930145L818.55235 456.930145zM471.388559 47.284301l0-104.901165c0-31.904641-20.394493-58.014298-45.323255-58.014298l-10.07138 0c-24.926716 0-45.321208 26.110681-45.321208 58.014298L370.672716 47.284301l-41.683355 0c-25.493627 0-46.352701 20.860097-46.352701 46.354747L282.63666 460.891364l459.213773 0 0-367.252315c0-25.494651-20.856004-46.354747-46.350654-46.354747l-38.229696 0 0-106.119923c0-31.91078-20.394493-58.014298-45.323255-58.014298l-10.069333 0c-24.926716 0-45.321208 26.104541-45.321208 58.014298L556.556287 47.284301 471.388559 47.284301 471.388559 47.284301z"  horiz-adv-x="1024" />

    
    <glyph glyph-name="cuowu" unicode="&#58915;" d="M511.695055-147.405843c-247.264547 0-447.709765 200.445218-447.709765 447.709765S264.429485 748.013687 511.695055 748.013687 959.40482 547.568469 959.40482 300.303922 758.959601-147.405843 511.695055-147.405843zM719.543893 509.82075l-0.005117 0c-20.953218 20.953218-54.928007 20.953218-75.881225 0L510.675842 376.840062 379.379517 508.142527c-20.874423 20.874423-54.716182 20.874423-75.590606 0l-0.005117 0c-20.869307-20.880563-20.869307-54.721299 0-75.595722l131.296325-131.296325L302.172087 168.335285c-20.958334-20.953218-20.958334-54.917774 0-75.869968l0.005117 0c20.947078-20.958334 54.92289-20.958334 75.881225 0l132.902916 132.896776 132.975571-132.980687c20.87954-20.85191 54.721299-20.85191 75.590606 0l0 0.022513c20.874423 20.874423 20.874423 54.698786 0 75.573209L586.55195 300.958838l132.991943 132.986827C740.497111 454.903999 740.497111 488.868555 719.543893 509.82075z"  horiz-adv-x="1024" />

    
    <glyph glyph-name="tuichu" unicode="&#59015;" d="M271.424294 617.022307c-28.14399-20.008706-53.157687-42.681078-75.03802-67.997674-21.886473-25.326828-40.645722-52.68492-56.272631-82.072227-15.638165-29.388331-27.514657-60.497862-35.645848-93.326549-8.125051-32.828686-12.190647-66.122977-12.190647-99.884918 0-58.152445 11.099802-112.710015 33.295314-163.67271 22.196535-50.959625 52.212152-95.355765 90.040712-133.179208 37.833677-37.838793 82.229816-67.844178 133.187395-90.044806 50.958602-22.194488 105.518219-33.295314 163.664523-33.295314 57.525158 0 111.774713 11.100826 162.731268 33.295314 50.965765 22.200628 95.513354 52.212152 133.657092 90.044806 38.141692 37.824467 68.159356 82.226746 90.040712 133.179208 21.88545 50.963719 32.827663 105.520265 32.827663 163.67271 0 33.136701-3.906983 65.652256-11.724019 97.540524-7.817036 31.890314-18.916838 62.215994-33.295314 90.981131-14.386662 28.762067-32.204469 55.647391-53.461609 80.660064-21.261233 25.012673-45.019333 47.524386-71.285556 67.532069-13.756305 10.008958-28.606525 13.759375-44.549635 11.257391-15.941064-2.503007-28.92068-10.31902-38.923498-23.449062-10.008958-13.136182-13.756305-27.825742-11.258415-44.081984 2.508123-16.257266 10.31902-29.393447 23.450085-39.398312 39.389102-28.756951 69.564355-64.083527 90.512457-105.981776 20.941961-41.894156 31.416524-86.914512 31.416524-135.054929 0-41.271986-7.810896-80.201623-23.448038-116.780727-15.633049-36.57501-37.046754-68.465325-64.24214-95.664803-27.205619-27.205619-59.095933-48.776913-95.675036-64.717977-36.579103-15.943111-75.498508-23.917736-116.77254-23.917736-41.263799 0-80.189344 7.974625-116.768447 23.917736-36.582173 15.941064-68.476581 37.512359-95.670943 64.717977-27.199479 27.199479-48.77282 59.0857-64.712861 95.664803-15.948227 36.579103-23.915689 75.508741-23.915689 116.780727 0 48.76361 11.251252 94.880951 33.762965 138.337695 22.51069 43.458791 54.083779 79.249949 94.729501 107.388822 13.755282 9.384741 22.038946 22.201651 24.849968 38.457894 2.818185 16.257266-0.468674 31.266098-9.841136 45.027519-9.385764 13.130042-22.200628 21.103644-38.458917 23.910573-16.257266 2.811022-31.260981-0.461511-45.014216-9.841136l0 0L271.425318 617.022307zM512.464069 270.922754c16.261359 0 30.173207 5.785773 41.741683 17.34811 11.56643 11.571546 17.352203 25.485441 17.352203 41.742706l0 356.417549c0 16.257266-5.785773 30.326702-17.352203 42.203194-11.568477 11.881608-25.480324 17.819854-41.741683 17.819854-16.878412 0-31.103392-5.938246-42.670845-17.819854-11.565407-11.876492-17.352203-25.945929-17.352203-42.203194l0-356.417549c0-16.257266 5.786797-30.170137 17.352203-41.742706C481.360677 276.708528 495.585657 270.922754 512.464069 270.922754L512.464069 270.922754 512.464069 270.922754zM512.464069 270.922754"  horiz-adv-x="1024" />

    
    <glyph glyph-name="androidcancel" unicode="&#59098;" d="M512 716C281.118 716 96 530.882 96 300c0-230.872 185.118-416 416-416 230.87 0 416 185.128 416 416C928 530.882 742.872 716 512 716zM720.004 150.238l-58.24-58.234L512 241.766l-149.762-149.762-58.242 58.234L453.762 300l-149.766 149.762 58.242 58.232L512 358.238l149.762 149.756 58.24-58.232L570.238 300 720.004 150.238z"  horiz-adv-x="1024" />

    
    <glyph glyph-name="shipin" unicode="&#58890;" d="M943.649486 554.386758c-20.810978 13.469779-176.684048-61.945841-176.684048-61.945841l0 7.890714c0 65.823148-53.688783 119.159914-119.918183 119.159914L185.011202 619.491545c-66.231447 0-119.92023-53.336766-119.92023-119.159914l0-400.659169c0-65.810868 53.688783-119.162983 119.92023-119.162983l462.037075 0c66.2294 0 119.918183 53.353139 119.918183 119.162983l0 9.784854c0 0 156.801209-74.7781 176.684048-61.946864C963.527209 60.334525 964.455347 540.930281 943.649486 554.386758zM319.662949 108.493362 319.662949 492.495152 623.790574 300.511653 319.662949 108.493362z"  horiz-adv-x="1024" />

    
    <glyph glyph-name="msnui-help-doc" unicode="&#59254;" d="M629.361 560.169h266.689l-266.689 269.97zM609.569 540.378v289.762h-415.072v-91.454h350.86v-370.652h-350.86v-427.47h701.721v599.759h-286.647zM835.675 63.373h-580.634v41.974h580.634v-41.974zM835.675 159.719h-580.634v42.030h580.634v-42.030zM835.675 256.176h-580.634v41.974h580.634v-41.974zM127.783 368.088l44.476-39.583v39.583zM127.783 719.617v-332.403h395.336v332.403h-395.336zM367.952 431.467h-45.199v46.255h45.199v-46.255zM388.19 549.996c-15.733-12.008-23.35-25.908-22.571-41.752v-9.007h-41.696v12.341c-1.556 21.182 8.228 39.194 29.355 54.316 20.237 15.733 30.022 30.856 29.243 45.088-0.723 21.904-11.174 33.524-31.578 34.969-21.848-0.779-35.414-16.178-40.584-46.255h-41.752c7.56 50.424 34.581 75.609 81.279 75.609 48.867-1.556 74.498-22.182 76.72-62.1 1.556-23.294-11.286-44.365-38.416-63.211z"  horiz-adv-x="1024" />

    
    <glyph glyph-name="wangluo" unicode="&#58925;" d="M513.878279 763.225133c-256.576633 0-464.563618-207.978798-464.563618-464.540082 0-256.55412 207.988008-464.542128 464.563618-464.542128 256.567423 0 464.562595 207.991078 464.562595 464.542128C978.441896 555.245312 770.445702 763.225133 513.878279 763.225133zM732.239542 320.802792 536.003182 320.802792 536.003182 517.030965c60.34232-1.464351 118.831432-8.901741 174.622086-21.594831 12.694113-55.792701 20.152992-114.279766 21.615297-174.636413L732.239542 320.802792zM536.003182 276.562195l196.23636 0c-1.494027-61.630662-9.221012-121.31909-22.412452-178.173982-55.550177-11.960403-113.766067-18.974144-173.823907-20.358677L536.003182 276.562195 536.003182 276.562195zM934.661787 320.802792 779.087523 320.802792c-1.292436 55.500035-7.441483 109.521392-17.921161 161.491021 55.769165-16.350386 108.388593-38.058804 156.928099-64.348564 9.147334-31.043017 14.82873-63.570851 16.565281-97.145527L934.661787 320.802792zM893.366266 481.960215c-45.431725 21.169135-93.693916 38.670741-144.209426 52.005444-13.334703 50.506301-30.823006 98.769514-51.991118 144.191006C782.636349 636.801792 852.007299 567.422655 893.366266 481.960215L893.366266 481.960215zM633.135406 702.891c26.292829-48.536436 48.000224-101.153818 64.358797-156.917866-51.968605 10.476609-105.988939 16.61133-161.488974 17.901719L536.005228 718.981467c0 0.152473-0.008186 0.301875-0.01228 0.452301C569.560462 717.699264 602.092389 712.034241 633.135406 702.891L633.135406 702.891zM491.767701 719.435815c-0.00307-0.151449-0.011256-0.300852-0.011256-0.453325l0-155.107637c-57.020668-1.325182-112.481817-7.768941-165.756161-18.775622 15.302521 55.087643 35.576263 107.113553 60.104913 155.179268C419.696246 710.955676 455.11185 717.538605 491.767701 719.435815L491.767701 719.435815 491.767701 719.435815zM325.463048 675.630123c-19.685341-44.807509-35.966143-92.358501-48.423873-142.079926-49.946552-13.279445-97.67867-30.637788-142.639674-51.586912C174.925497 565.706571 242.349095 634.010213 325.463048 675.630123L325.463048 675.630123zM109.665167 417.949342c48.267307 26.142403 100.57258 47.755654 155.998937 64.074318-9.928117-51.883671-15.754822-105.814977-16.981766-161.222915L93.108073 320.800745c1.737574 33.574676 7.410783 66.103534 16.557094 97.146551L109.665167 417.949342zM93.107049 276.562195l155.575288 0c1.25969-56.926524 7.370875-112.290459 17.804505-165.481915-54.737672 15.264659-106.437148 35.446303-154.221454 59.830667C101.588211 204.493809 95.004259 239.90839 93.107049 276.562195L93.107049 276.562195zM136.928091 110.273914c44.343951-19.479657 91.353614-35.657104 140.513244-48.061622 12.405541-49.142234 28.547173-96.14985 48.019667-140.476405-81.409125 40.768519-147.764392 107.135042-188.535981 188.540074L136.928091 110.273914zM491.755422-122.070828c-36.651758 1.898233-72.063269 8.480138-105.652272 19.155269-24.388457 47.786353-44.568055 99.483782-59.835783 154.212244 53.191456-10.431583 108.560508-16.533558 165.488055-17.795295L491.755422-122.070828 491.755422-122.070828zM491.755422 78.030559c-61.353346 1.415232-120.782877 8.700149-177.410596 21.139459-12.43931 56.616462-19.724227 116.04497-21.141506 177.393199l198.549032 0 0-198.530612L491.755422 78.030559zM293.205367 320.802792c1.385557 60.057841 8.413624 118.27066 20.376073 173.817768 56.855916 13.187347 116.544343 20.912285 178.171935 22.411429l0-196.228173L293.20332 320.803815 293.205367 320.802792 293.205367 320.802792zM536.003182-122.070828 536.003182 33.500367c55.399751 1.226944 109.338221 7.017834 161.218822 16.947997-16.321734-55.415101-37.940101-107.711164-64.088644-155.975401-31.03483-9.143241-63.561641-14.808264-97.130178-16.541745L536.003182-122.070828 536.003182-122.070828zM697.164698-80.792703c20.947078 44.950771 38.288025 92.676749 51.570539 142.609998 49.738821 12.4608 97.28879 28.770254 142.112672 48.461735-41.629119-83.112929-109.931738-150.544715-193.682187-191.068663L697.165722-80.792703zM915.504472 170.917086c-48.073902-24.529673-100.097766-44.802392-155.192571-60.099796 11.008728 53.272297 17.450441 108.726284 18.778692 165.745928l155.572218 0c-1.896186-36.649711-8.481162-72.060199-19.157315-105.647155L915.504472 170.917086z"  horiz-adv-x="1024" />

    
    <glyph glyph-name="icon16" unicode="&#58961;" d="M486.513 733.762c42.447 2.665 84.266-1.315 126.921-10.573 228.603-49.616 382.223-275.882 343.661-505.553-31.014-184.715-171.436-329.184-356.308-366.259-62.898-12.613-129.344-13.638-191.843 2.945-178.117 47.26-323.555 185.727-341.651 373.169-4.623 47.889-8.139 106.448 1.994 153.786 7.154 33.417 18.761 67.96 33.911 98.648 15.287 30.965 35.010 61.776 57.352 88.177 48.573 57.399 109.21 108.528 180.389 134.824 32.561 12.029 66.564 19.602 100.707 25.537 15.074 2.62 30.009 4.366 44.867 5.3zM511.603-119.74c227.537-0.004 412.877 183.593 412.579 408.699-0.3 225.577-184.226 406.984-413.299 407.642-226.651 0.65-411.615-182.576-411.642-407.776-0.027-225.678 184.555-408.561 412.363-408.565zM530.825 434.021c0-42.020 0.39-84.045-0.28-126.054-0.163-10.173 3.436-15.162 11.964-19.878 58.001-32.068 115.721-64.647 173.502-97.115 12.878-7.237 13.599-9.853 6.779-22.030-10.074-17.988-11.731-18.803-25.209-11.26-64.338 36.006-128.564 72.215-193.051 107.953-9.065 5.024-12.656 11.12-12.621 21.475 0.304 91.892 0.063 183.786 0.466 275.678 0.024 5.393 3.573 14.918 6.574 15.376 9.24 1.412 19.166 0.072 28.45-1.933 1.959-0.423 3.257-8.215 3.282-12.619 0.239-43.196 0.144-86.395 0.145-129.593z"  horiz-adv-x="1024" />

    
    <glyph glyph-name="ad80" unicode="&#59054;" d="M986.944 559.84c-20.288 0-36.864 16.512-36.864 36.864 0 12.48-10.048 22.656-22.464 22.656l-831.296 0c-12.288 0-22.464-10.112-22.464-22.656 0-20.352-16.512-36.864-36.864-36.864-20.48 0-36.992 16.512-36.992 36.864 0 53.12 43.264 96.512 96.32 96.512l831.296 0c53.12 0 96.384-43.392 96.384-96.512 0-20.352-16.576-36.864-36.864-36.864L986.944 559.84zM927.616-93.28l-831.296 0c-53.056 0-96.32 43.136-96.32 96.384 0 20.352 16.512 36.864 36.992 36.864 20.352 0 36.864-16.512 36.864-36.864 0-12.352 10.112-22.528 22.464-22.528l831.296 0c12.352 0 22.464 10.112 22.464 22.528 0 20.352 16.576 36.864 36.864 36.864 20.48 0 37.056-16.512 37.056-36.864C1024-50.144 980.736-93.28 927.616-93.28L927.616-93.28zM129.088 142.496l0 39.616 58.176 0 0 231.872-64.704-21.888-3.2 41.28 90.304 30.976 21.376 0 0-282.24 46.976 0 0-39.616L129.088 142.496 129.088 142.496zM393.6 320.48c-9.6 12.352-14.528 29.376-14.528 48.768 0 54.528 42.24 95.104 103.744 95.104 60.8 0 104.128-36.992 104.128-97.856 0-45.376-21.888-78.656-72.064-121.856-17.6-14.848-42.304-38.4-64.064-62.528l141.056 0 0-39.616-214.912 0 0 21.504c32.768 36.352 76.928 80.64 111.744 112.768 37.888 34.24 53.44 59.776 53.44 89.28 0 35.136-23.552 57.6-59.968 57.6-36.224 0-58.176-22.848-58.176-51.264 0-12.352 3.776-24.128 11.776-36.224L393.6 320.48 393.6 320.48zM728.704 222.752c17.216-29.888 38.912-46.528 67.904-46.528 37.312 0 63.04 24.128 63.04 59.392 0 34.624-20.416 52.992-53.504 52.992l-22.912 0 0 39.36 22.4 0c27.904 0 45.504 14.976 45.504 47.104 0 29.888-21.376 48.512-52.992 48.512-27.136 0-48.576-16-65.152-49.6l-35.776 21.888c20.864 43.776 55.552 68.48 100.864 68.48 58.88 0 97.792-33.344 97.792-86.144 0-32.64-15.424-54.976-42.624-70.016 31.936-12.352 51.328-36.224 51.328-73.28 0-60.864-44.416-99.392-109.056-99.392-48.128 0-81.28 22.976-103.104 60.48L728.704 222.752 728.704 222.752zM728.704 222.752"  horiz-adv-x="1024" />

    
    <glyph glyph-name="dianhua" unicode="&#58882;" d="M844.52352 395.26272c-88.53504 147.43552-197.86752 238.09024-331.2128 238.09024-131.98336 0-246.29248-91.50464-331.2128-238.09024C97.15712 248.67712 29.15328 131.32672 29.15328 131.32672-34.78528-18.67904 46.31552-141.42592 209.408-141.42592l607.80544 0c163.06176 0 244.18304 122.74688 180.25472 272.76288C997.46816 131.32672 933.05856 247.8272 844.52352 395.26272L844.52352 395.26272zM513.30048 127.77344c-114.87232 0-207.99488 93.10208-207.99488 207.98464 0 114.88256 93.12256 207.98464 207.99488 207.98464 114.8928 0 208.00512-93.10208 208.00512-207.98464C721.3056 220.86528 628.19328 127.77344 513.30048 127.77344L513.30048 127.77344zM52.11136 404.31488c38.20544-23.7056 83.61984 8.4992 91.5968 29.39904 52.35712 136.99072 181.1456 236.94336 336.67072 245.59616l0-0.08192c21.248 1.66912 42.61888 1.66912 63.86688 0.02048 155.21792-8.93952 283.77088-108.73856 336.04608-245.54496 7.97696-20.89984 53.39136-53.10464 91.5968-29.39904 45.17888 28.06784 79.72864 129.96608 21.0944 213.49376C952.61696 675.33696 793.3952 739.73632 548.47488 740.5248L548.47488 740.58624c-23.9616 1.11616-47.95392 1.11616-71.92576 0l0-0.0512C231.00416 739.93088 71.45472 675.3984 31.00672 617.78816-27.62752 534.28096 6.93248 432.36224 52.11136 404.31488L52.11136 404.31488zM52.11136 404.31488"  horiz-adv-x="1024" />

    
    <glyph glyph-name="mute" unicode="&#59071;" d="M346.743212 319.462261c2.971681-14.897292 8.331759-29.072129 16.023952-42.399669 1.061169 0.577145 1.750877 0.896416 2.38328 1.304715 104.665805 67.525929 209.319329 135.072325 314.033229 202.52253 3.012613 1.940189 3.794419 4.139274 3.783163 7.482415-0.103354 29.878494 0.106424 59.758012-0.093121 89.635483-0.522909 77.958536-49.909713 142.784984-124.772748 163.488515-10.561543 2.920516-21.586644 4.16588-32.396851 6.186909-8.755408 0-17.511839 0-26.267247 0-6.916527-1.133823-13.855566-2.14178-20.744463-3.421936-76.257801-14.168698-134.829801-82.20628-135.707798-159.66442-0.880043-77.635171-0.370437-155.288762-0.068562-232.933143C342.958002 340.915875 344.633155 330.0412 346.743212 319.462261zM787.28267 383.513042c-26.295899 2.740414-47.501874-15.898085-47.77919-42.431392-0.217964-20.875446-3.059686-41.310871-8.936533-61.315484C690.155563 142.22665 529.813714 76.829198 403.205155 146.326015c-3.804652 2.088568-6.371104 2.251274-10.125615-0.223081-21.911032-14.439874-44.040029-28.54922-66.088184-42.782386-1.828648-1.180895-3.597945-2.454912-5.8001-3.963265 44.450375-33.843806 93.91802-54.241368 148.591223-62.063521 0-33.889855 0-67.13605 0-101.108792-2.50096 0-4.733814 0-6.966669 0-43.580564 0-87.161129 0.007163-130.742716-0.016373-3.039219-0.002047-6.111185 0-9.112542-0.408299-15.778358-2.145873-27.219945-10.527774-33.568537-25.038256-6.28924-14.374382-4.367471-28.223808 4.63967-41.070394 6.687306-9.537214 16.507976-14.158465 27.244504-17.334807 127.528512 0 255.058047 0 382.586558 0 1.223874 0.421602 2.427282 0.923022 3.674693 1.252527 23.281239 6.14393 36.856419 29.414937 30.41573 52.16815-5.173836 18.278295-21.791305 30.395264-42.104957 30.425963-44.532239 0.067538-89.064478 0.021489-133.596717 0.021489-2.194992 0-4.389984 0-6.708795 0 0 34.162054 0 67.422575 0 100.890828 1.9934 0.422625 3.807722 0.887206 5.647627 1.187035 81.938174 13.332656 148.937101 52.382021 199.944821 117.825522 41.957601 53.832046 62.581314 115.486244 63.510476 183.689602C824.960805 362.896492 809.086256 381.241302 787.28267 383.513042zM897.188826 550.209622c-5.894244 7.17747-18.014282 10.111289-30.945803 1.746784-242.881726-157.116387-485.896482-314.028113-728.946031-470.88458-6.667863-4.303003-12.559037-8.965186-15.878642-16.335037 0-3.426029 0-6.852058 0-10.278087 4.353145-10.06524 11.253298-17.098423 22.926152-15.732309 4.998851 0.585331 10.084683 3.282766 14.439874 6.091742 242.995313 156.804279 485.907739 313.735447 728.895889 470.550982 6.584975 4.249791 12.168134 8.948813 14.901385 16.464997 0 3.045359 0 6.090718 0 9.136078C900.80826 544.072855 899.422703 547.489674 897.188826 550.209622zM680.21005 331.213909c-70.980611-45.797046-141.166113-91.082438-211.802894-136.657426C563.164287 166.63762 666.961304 232.030979 680.21005 331.213909zM237.774405 196.196843c24.447808 15.774265 47.88766 30.898731 71.452355 46.103014-0.204661 1.096984-0.194428 1.502213-0.352017 1.824555-15.389502 31.607882-23.085788 64.952314-23.149233 100.141768-0.016373 9.184173-3.664459 17.412578-9.667174 24.440645-11.871375 13.901615-30.580482 18.801205-47.591925 12.536524-16.914228-6.228865-27.530007-21.335934-27.567869-39.992853-0.080841-39.626509 7.544837-77.784574 22.750143-114.365724C227.910757 216.631244 232.920864 206.687778 237.774405 196.196843z"  horiz-adv-x="1024" />

    
    <glyph glyph-name="shenghuo" unicode="&#59030;" d="M886.04672 50.11328c-74.32192 0-134.74816 59.89376-134.74816 133.49888S811.73504 317.1008 886.04672 317.1008c74.31168 0 134.74816-59.91424 134.74816-133.49888C1020.81536 110.00704 960.36864 50.11328 886.04672 50.11328L886.04672 50.11328zM886.04672 273.38624c-49.98144 0-90.65472-40.27392-90.65472-89.78432 0-49.5104 40.67328-89.78432 90.65472-89.78432 49.9712 0 90.60352 40.26368 90.60352 89.78432C976.65024 233.11232 936.01792 273.38624 886.04672 273.38624L886.04672 273.38624zM394.51648-168.4288c-215.77728 0-391.31136 170.82368-391.31136 380.7744L3.20512 347.52384c0 12.0832 9.8816 21.8624 22.0672 21.8624l738.46784 0c12.20608 0 22.09792-9.7792 22.09792-21.8624l0-135.17824C785.83808 2.39488 610.28352-168.4288 394.51648-168.4288L394.51648-168.4288zM47.32928 325.66144l0-113.32608c0-185.856 155.71968-337.05984 347.16672-337.05984S741.66272 26.4896 741.66272 212.33536L741.66272 325.66144 47.32928 325.66144 47.32928 325.66144zM233.04192 395.31392c-4.89472 0-9.76896 1.60768-13.88544 4.89472-2.79552 2.24256-68.75136 55.87968-67.77856 119.68512 0.45056 31.10912 15.91296 58.3168 45.95712 80.9472 22.82496 17.23392 33.9968 35.00032 33.19808 52.84864-1.75104 39.20896-55.84896 74.04544-56.39168 74.42432-10.2912 6.44096-13.40416 19.92704-6.88128 30.13632 6.49216 10.17856 20.1216 13.25056 30.39232 6.83008 3.05152-1.88416 74.14784-46.99136 76.91264-109.4656 1.49504-33.01376-15.53408-63.15008-50.51392-89.52832-18.96448-14.29504-28.30336-29.61408-28.5696-46.848-0.52224-35.52256 36.94592-73.45152 51.46624-85.05344 9.43104-7.56736 10.92608-21.32992 3.23584-30.73024C245.84192 398.08896 239.4624 395.31392 233.04192 395.31392L233.04192 395.31392zM419.26656 395.31392c-4.89472 0-9.79968 1.60768-13.89568 4.89472-2.78528 2.24256-68.75136 55.87968-67.81952 119.68512 0.48128 31.10912 15.95392 58.3168 45.99808 80.9472 22.82496 17.23392 33.97632 35.00032 33.16736 52.84864-1.73056 39.20896-55.83872 74.04544-56.3712 74.42432-10.26048 6.44096-13.40416 19.92704-6.89152 30.13632 6.53312 10.17856 20.16256 13.25056 30.43328 6.83008 3.0208-1.88416 74.1376-46.99136 76.91264-109.4656 1.49504-33.01376-15.53408-63.15008-50.5344-89.52832-18.96448-14.29504-28.30336-29.61408-28.57984-46.848-0.54272-35.52256 36.9664-73.45152 51.46624-85.05344 9.45152-7.56736 10.92608-21.32992 3.21536-30.73024C432.06656 398.08896 425.69728 395.31392 419.26656 395.31392L419.26656 395.31392zM605.47072 395.31392c-4.864 0-9.78944 1.60768-13.86496 4.89472-2.816 2.24256-68.75136 55.87968-67.79904 119.68512 0.4608 31.10912 15.93344 58.3168 45.96736 80.9472 22.82496 17.23392 33.97632 35.00032 33.16736 52.84864-1.73056 39.20896-55.81824 74.04544-56.3712 74.42432-10.28096 6.44096-13.40416 19.92704-6.89152 30.13632 6.51264 10.17856 20.15232 13.25056 30.43328 6.83008 3.00032-1.88416 74.11712-46.99136 76.89216-109.4656 1.47456-33.01376-15.53408-63.15008-50.5344-89.52832-18.98496-14.29504-28.30336-29.61408-28.57984-46.848-0.52224-35.52256 36.9664-73.45152 51.44576-85.05344 9.45152-7.56736 10.92608-21.32992 3.2768-30.73024C618.30144 398.08896 611.90144 395.31392 605.47072 395.31392L605.47072 395.31392zM605.47072 395.31392"  horiz-adv-x="1024" />

    
    <glyph glyph-name="ziyuangongxiangc" unicode="&#58927;" d="M509.813706 325.801642c-28.737508-0.432859-144.792711-0.707105-144.792711-43.337018 0-42.669822 116.055203-42.944068 144.792711-43.337018 28.717042-0.391926 144.840806 1.176802 144.840806 43.337018C654.654512 325.093515 538.589077 325.368784 509.813706 325.801642zM509.606998 222.734242c-25.058722 0.432859-110.692055 0.74599-144.586003 28.001751l0-65.925479 0-53.413514 0.155543 113.535823 0.158612-114.399493 0.765433 0c34.6778-26.354228 118.731148-26.707268 143.507438-27.099195 24.727171-0.390903 108.594277 0.784876 143.4399 27.099195 0 0 1.490957 1.25662 1.607614 1.412163l-0.391926 118.948089C620.338962 223.559027 534.648324 222.343339 509.606998 222.734242zM509.606998 85.746288c-25.058722 0.393973-110.692055 0.706081-144.586003 27.962865l0-65.924455 0-53.416584 0.155543 113.536846 0.158612-114.39847 0.765433 0c34.6778-26.354228 118.731148-26.708292 143.507438-27.059286 24.727171-0.391926 108.594277 0.743944 143.4399 27.059286 0 0 1.490957 1.293459 1.607614 1.411139l-0.391926 118.947066C620.338962 86.572096 534.648324 85.315476 509.606998 85.746288zM509.606998-47.984483c-25.058722 0.391926-110.692055 0.74292-144.586003 27.960819l0-65.926502 0-53.375651 0.155543 113.495914 0.158612-114.397447 0.765433 0c34.6778-26.354228 118.731148-26.668383 143.507438-27.100218 24.727171-0.391926 108.594277 0.783853 143.4399 27.100218 0 0 1.490957 1.25662 1.607614 1.411139l-0.391926 118.910227C620.338962-47.160721 534.648324-48.417341 509.606998-47.984483zM855.136569 712.645155c28.709879-0.412392 144.871505 1.175779 144.871505 43.337018 0 42.62889-116.084878 42.903136-144.871505 43.296085-28.726252-0.431835-144.790664-0.667196-144.790664-43.296085C710.345905 713.31235 826.410318 713.037081 855.136569 712.645155zM854.942141 696.272255c-25.060769 0.412392-110.712521 0.705058-144.596236 27.942399l0-65.924455 0-53.356208 0.154519 113.51638 0.195451-114.418936 0.744967 0c34.670637-26.372647 118.714775-26.687826 143.500275-27.078729 24.706705-0.411369 108.593254 0.744967 143.41841 27.078729 0 0 1.490957 1.276063 1.647523 1.39272l-0.413416 118.948089C965.692524 697.075551 879.981421 695.859863 854.942141 696.272255zM854.942141 559.264858c-25.060769 0.391926-110.712521 0.705058-144.596236 27.961842l0-65.945945 0-53.394071 0.154519 113.534799 0.195451-114.418936 0.744967 0c34.670637-26.373671 118.714775-26.706245 143.500275-27.079752 24.706705-0.391926 108.593254 0.744967 143.41841 27.079752 0 0 1.490957 1.27504 1.647523 1.39272l-0.413416 118.967532C965.692524 560.048711 879.981421 558.852466 854.942141 559.264858zM854.942141 425.531018c-25.060769 0.410346-110.712521 0.744967-144.596236 27.962865l0-65.926502 0-53.374628 0.154519 113.49489 0.195451-114.39847 0.744967 0c34.670637-26.353205 118.714775-26.66736 143.500275-27.079752 24.706705-0.411369 108.593254 0.765433 143.41841 27.079752 0 0 1.490957 1.255597 1.647523 1.412163l-0.413416 118.928646C965.692524 426.316917 879.981421 425.119649 854.942141 425.531018zM172.13801 799.278257C143.419945 798.885308 27.335067 798.611062 27.335067 755.982172c0-42.669822 116.064412-42.945091 144.802944-43.337018 28.707832-0.412392 144.848992 1.175779 144.848992 43.337018C316.987003 798.611062 200.923614 798.885308 172.13801 799.278257zM171.932326 696.272255C146.870534 696.684648 61.257667 696.977313 27.335067 724.214654l0-65.924455 0-53.356208 0.166799 113.51638 0.156566-114.418936 0.765433 0c34.678824-26.372647 118.732172-26.687826 143.509485-27.078729 24.715915-0.411369 108.61372 0.744967 143.43069 27.078729 0 0 1.487887 1.276063 1.623987 1.39272l-0.401136 118.948089C282.691919 697.075551 196.991048 695.859863 171.932326 696.272255zM171.932326 559.264858c-25.061792 0.391926-110.703311 0.705058-144.597259 27.961842l0-65.945945 0-53.394071 0.166799 113.534799 0.156566-114.418936 0.765433 0c34.678824-26.373671 118.732172-26.706245 143.509485-27.079752 24.715915-0.391926 108.61372 0.744967 143.43069 27.079752 0 0 1.478677 1.27504 1.623987 1.39272l-0.401136 118.967532C282.691919 560.048711 196.991048 558.852466 171.932326 559.264858zM171.932326 425.531018c-25.061792 0.410346-110.703311 0.744967-144.597259 27.962865l0-65.926502 0-53.374628 0.166799 113.49489 0.156566-114.39847 0.765433 0c34.678824-26.353205 118.732172-26.66736 143.509485-27.079752 24.715915-0.411369 108.61372 0.765433 143.43069 27.079752 0 0 1.478677 1.255597 1.623987 1.412163l-0.401136 118.928646C282.691919 426.316917 196.991048 425.119649 171.932326 425.531018zM267.887748 186.890896 161.127236 239.088722 129.722992 119.513346 181.334463 144.691795 244.640278 14.960105 279.554462 32.017596 216.266044 161.711424ZM863.766111 225.953563 800.466436 96.21778 748.855988 121.396229 780.270465 1.781968 887.021767 53.980817 835.409273 79.158243 898.689505 208.891979ZM553.178353 466.200276 646.92855 546.871597 553.178353 619.915193 553.178353 562.480087 408.828734 562.480087 408.828734 523.614917 553.178353 523.614917Z"  horiz-adv-x="1024" />

    
    <glyph glyph-name="xuanzhong" unicode="&#59212;" d="M966.983 555.124c0 96.156-77.949 174.115-174.115 174.115h-530.719c-96.156 0-174.115-77.949-174.115-174.115v-530.719c0-96.156 77.949-174.115 174.115-174.115h530.719c96.156 0 174.115 77.949 174.115 174.115v530.719zM782.268 398.925l-274.835-278.377c-1.259-1.741-2.619-3.397-4.151-4.953-15.58-15.801-40.82-15.801-56.384 0l-140.956 142.764c-15.58 15.801-15.58 41.317 0 57.12s40.82 15.801 56.384 0l112.419-113.845 251.141 254.4c15.58 15.801 40.82 15.801 56.384 0s15.58-41.317 0-57.12z"  horiz-adv-x="1037" />

    
    <glyph glyph-name="warning" unicode="&#59081;" d="M511.999488 811.315408C229.61098 811.315408 0.685103 582.388509 0.685103 300c0-282.388509 228.925876-511.314385 511.314385-511.314385 282.388509 0 511.314385 228.925876 511.314385 511.314385C1023.314897 582.388509 794.38902 811.315408 511.999488 811.315408zM511.999488 7.436758c-36.515658 0-66.116837 29.601178-66.116837 66.116837s29.601178 66.116837 66.116837 66.116837 66.116837-29.601178 66.116837-66.116837S548.515147 7.436758 511.999488 7.436758zM551.67 234.103174c0-17.370623-14.081717-35.960003-31.452339-35.960003l-16.435321 0c-17.370623 0-31.452339 18.58938-31.452339 35.960003l-26.446325 316.170916c0 17.370623 14.081717 37.748742 31.452339 37.748742l69.328995 0c17.370623 0 31.452339-20.379143 31.452339-37.748742L551.67 234.103174z"  horiz-adv-x="1024" />

    
    <glyph glyph-name="weixin" unicode="&#59088;" d="M371.226529 692.547633c-187.547442 0-341.167762-127.83631-341.167762-290.156664 0-93.698461 51.116462-170.613985 136.491188-230.204701l-34.122797-102.654378 119.256692 59.831547c42.687363-8.474254 76.915524-17.144184 119.497523-17.144184 10.701945 0 21.32863 0.526819 31.849951 1.369729-6.652967 22.833826-10.521321 46.706237-10.521321 71.481766 0 148.969264 128.001881 269.926827 290.066352 269.926827 11.04814 0 21.990916-0.812806 32.858432-2.016963C685.91789 590.420073 538.980641 692.547633 371.226529 692.547633zM260.398936 462.207464c-25.558231 0-51.372345 17.129132-51.372345 42.702415 0 25.678646 25.814114 42.566947 51.372345 42.566947s42.597051-16.903353 42.597051-42.566947C302.980935 479.336597 285.957167 462.207464 260.398936 462.207464zM499.168203 462.207464c-25.573283 0-51.236877 17.129132-51.236877 42.702415 0 25.678646 25.663595 42.566947 51.236877 42.566947 25.693698 0 42.702415-16.903353 42.702415-42.566947C541.870618 479.336597 524.846849 462.207464 499.168203 462.207464zM993.971337 189.149829c0 136.310564-136.491188 247.484353-289.780365 247.484353-162.320354 0-290.171716-111.173788-290.171716-247.484353 0-136.611604 127.851362-247.559613 290.171716-247.559613 33.972277 0 68.21549 8.549514 102.353339 17.11408l93.593097-51.236877-25.663595 85.269362C942.945187 44.079023 993.971337 112.204201 993.971337 189.149829zM610.10116 231.776984c-16.993665 0-34.137849 16.873249-34.137849 34.107745 0 17.023769 17.144184 34.152901 34.137849 34.152901 25.814114 0 42.702415-17.129132 42.702415-34.152901C652.803575 248.650233 635.915274 231.776984 610.10116 231.776984zM797.769017 231.776984c-16.873249 0-33.897018 16.873249-33.897018 34.107745 0 17.023769 17.023769 34.152901 33.897018 34.152901 25.558231 0 42.702415-17.129132 42.702415-34.152901C840.471432 248.650233 823.327248 231.776984 797.769017 231.776984z"  horiz-adv-x="1024" />

    
    <glyph glyph-name="jiankang" unicode="&#59031;" d="M865.051 563.151h-183.567v45.707c0 41.721-33.827 75.559-75.586 75.559h-182.332c-41.748 0-75.575-33.838-75.575-75.559v-45.707h-183.754c-57.674 0-104.44-46.756-104.44-104.429v-458.12c0-57.672 46.766-104.454 104.44-104.454h700.637c57.672 0 104.449 46.782 104.449 104.454l0 433.803c0.112-1.995 0.177-3.996 0.177-6.017v30.334c0 57.673-46.776 104.429-104.449 104.429v0zM393.467 608.863c0 16.576 13.5 30.077 30.099 30.077h182.332c16.598 0 30.115-13.5 30.115-30.077v-45.712h-242.545l-0.001 45.712zM710.672 214.379c-0.005 0.038-0.005 0.076-0.011 0.114-1.090-14.304-3.706-28.185-7.68-41.472 0-0.005 0-0.005-0.005-0.009-0.422-1.424-0.867-2.83-1.322-4.237-0.032-0.107-0.068-0.214-0.107-0.326-0.427-1.312-0.867-2.617-1.325-3.922-0.070-0.203-0.14-0.407-0.215-0.61-0.427-1.209-0.867-2.419-1.316-3.616-0.118-0.304-0.23-0.604-0.348-0.909-0.416-1.101-0.851-2.198-1.289-3.289-0.161-0.413-0.331-0.819-0.497-1.226-0.402-0.983-0.813-1.962-1.231-2.942-0.23-0.536-0.465-1.070-0.7-1.605-0.375-0.845-0.744-1.684-1.13-2.52-0.315-0.696-0.641-1.386-0.968-2.080-0.315-0.675-0.632-1.344-0.957-2.012-0.438-0.909-0.893-1.813-1.347-2.717-0.224-0.445-0.445-0.889-0.67-1.327-0.635-1.24-1.283-2.472-1.946-3.692-0.054-0.107-0.112-0.214-0.167-0.315-33.378-61.395-98.448-103.065-173.253-103.065-6.777 0-13.474 0.342-20.074 1.012-0.107 0.010-0.214 0.021-0.32 0.037-1.428 0.144-2.857 0.311-4.281 0.487-0.55 0.069-1.101 0.145-1.653 0.221-0.957 0.128-1.914 0.262-2.866 0.402-0.904 0.133-1.809 0.278-2.707 0.427-0.578 0.096-1.155 0.188-1.728 0.289-1.208 0.208-2.417 0.429-3.615 0.659-0.241 0.047-0.482 0.090-0.723 0.139-85.68 16.833-151.371 89.285-158.148 178.218-0.059-0.76-0.118-1.52-0.172-2.285-0.503 5.75-0.775 11.564-0.775 17.437 0 108.841 88.258 197.067 197.062 197.067 108.835 0 197.062-88.226 197.062-197.067 0.006-5.134-0.191-10.226-0.578-15.266v0zM638.274 275.144h-78.058v78.545c0 7.125-5.803 12.88-12.955 12.88h-65.033c-7.147 0-12.966-5.761-12.966-12.88v-78.545h-78.057c-7.121 0-12.897-5.803-12.897-12.965v-65.012c0-7.168 5.77-12.971 12.897-12.971h78.057v-77.571c0-7.136 5.819-12.908 12.966-12.908h65.033c7.152 0 12.955 5.772 12.955 12.908v77.571h78.058c7.136 0 12.891 5.803 12.891 12.971v65.012c0 7.162-5.755 12.965-12.891 12.965v0z"  horiz-adv-x="1024" />

    
    <glyph glyph-name="leqi" unicode="&#59033;" d="M663.241331 221.155991c0 44.615169 18.21445 68.45768 18.21445 126.068552 0 62.624963-78.076546 80.225442-132.310583 85.137204L549.145198 599.77096c8.390926 8.18627 14.4283 18.726092 17.498151 30.493854l32.131108 0c5.01409 0 9.107225 4.093135 9.107225 9.107225s-4.093135 9.107225-9.107225 9.107225l-29.879884 0L568.894574 681.633656l29.879884 0c5.01409 0 9.107225 4.093135 9.107225 9.107225s-4.093135 9.107225-9.107225 9.107225l-32.131108 0c-7.060658 28.037973-32.438093 49.015289-62.624963 49.015289-30.186869 0-55.564305-20.977316-62.624963-49.015289L409.364645 699.848106c-5.01409 0-9.107225-4.093135-9.107225-9.107225s4.093135-9.107225 9.107225-9.107225l29.879884 0L439.244529 648.479265 409.364645 648.479265c-5.01409 0-9.107225-4.093135-9.107225-9.107225s4.093135-9.107225 9.107225-9.107225l32.131108 0c2.967523-11.767763 9.004897-22.307585 17.498151-30.493854l0-167.409214c-54.131708-4.911762-132.310583-22.409913-132.310583-85.137204 0-57.610872 18.21445-81.453383 18.21445-126.068552 0-44.615169-75.211352-108.877386-75.211352-206.498651 0-141.827121 168.125512-164.646348 234.331968-164.646348 66.206455 0 234.331968 22.921555 234.331968 164.646348C738.452683 108.79944 663.241331 176.540821 663.241331 221.155991zM504.018387 296.878985c33.461377 0 60.680723-27.117018 60.680723-60.680723 0-33.461377-27.117018-60.680723-60.680723-60.680723-33.461377 0-60.680723 27.117018-60.680723 60.680723S470.55701 296.878985 504.018387 296.878985zM587.722994-3.045468 420.416109-3.045468c-10.744479 0-19.544719 8.80024-19.544719 19.544719 0 10.744479 8.80024 19.544719 19.544719 19.544719l167.306885 0c10.744479 0 19.544719-8.80024 19.544719-19.544719C607.267713 5.754772 598.467473-3.045468 587.722994-3.045468z"  horiz-adv-x="1024" />

    
    <glyph glyph-name="xuanzhong1" unicode="&#58939;" d="M705.433 58.859c-14.436 0-28.871 5.422-40.024 16.268l-220.433 215.010c-22.685 22.074-23.144 58.355-0.994 81.038 22.074 22.609 58.431 23.143 81.039 0.994l180.486-175.981 312.395 304.757c22.686 22.074 58.888 21.615 81.038-0.993 22.073-22.685 21.615-58.888-0.993-81.038l-352.418-343.71c-11.228-10.922-25.664-16.345-40.1-16.345z"  horiz-adv-x="1536" />

    
    <glyph glyph-name="nvxingshengzhibuwei" unicode="&#58922;" d="M285.975 643.449c222.396 164.729 444.768 0 444.768 0 230.62 73.22 252.586-87.856 252.586-87.856-148.256-389.858-247.093 43.927-247.093 43.927 10.981-208.656-101.595-302.004-101.595-302.004 41.195-170.22-46.684-236.111-46.684-236.111-16.497-96.411 46.684-186.691 46.684-186.691h-249.827c87.856 93.347 21.963 230.62 21.963 230.62-46.095 71.43 10.981 190.345 10.981 190.345-142.765 45.766-131.783 237.949-131.783 237.949-148.256-307.493-236.111-16.473-236.111-16.473-21.963 219.637 236.111 126.291 236.111 126.291zM395.795 473.231c0 0-16.473-109.821 82.365-142.765l-10.981-219.637h71.382l5.492 219.637c0 0 82.835 43.857 87.856 98.837-3.582 62.026-26.090 77.062 32.946 170.22h-307.493c0 0 62.852-67.988 38.436-126.291z"  horiz-adv-x="1024" />

    
    <glyph glyph-name="sortdesc" unicode="&#60429;" d="M804.571184 274.285714q0-14.848-10.825143-25.746286l-256-256q-10.825143-10.825143-25.746286-10.825143t-25.746286 10.825143l-256 256q-10.825143 10.825143-10.825143 25.746286t10.825143 25.746286 25.746286 10.825143l512 0q14.848 0 25.746286-10.825143t10.825143-25.746286z"  horiz-adv-x="1024" />

    
    <glyph glyph-name="qq" unicode="&#59089;" d="M913.514141 152.236632c-18.712177 108.692514-97.227392 179.893136-97.227392 179.893136 11.236925 98.683557-29.90203 116.190279-29.90203 116.190279-8.667404 305.33615-271.043113 299.982212-276.547477 299.832809-5.525853 0.170892-267.946588 5.502317-276.55771-299.832809 0 0-41.150212-17.507746-29.924543-116.190279 0 0-78.527494-71.200622-97.215112-179.893136 0 0-9.987468-183.677323 89.728604-22.484084 0 0 22.449291-61.214177 63.564711-116.203582 0 0-73.528644-24.994254-67.302849-89.956801 0 0-2.487657-72.439846 157.054989-67.439972 0 0 112.177895 8.715499 145.81704 56.226582l29.65132 0c33.662681-47.512107 145.816017-56.226582 145.816017-56.226582 159.507854-4.999874 157.056012 67.439972 157.056012 67.439972 6.189979 64.962547-67.326385 89.956801-67.326385 89.956801 41.137932 54.988382 63.564711 116.203582 63.564711 116.203582C923.465794-31.440691 913.514141 152.236632 913.514141 152.236632L913.514141 152.236632zM913.514141 152.236632"  horiz-adv-x="1024" />

    
    <glyph glyph-name="icon11" unicode="&#58881;" d="M800.687 408.932v0.017c-22.153 0-40.105-18.114-40.105-40.436v-63.965c0-105.562-68.874-202.232-170.772-226.616-145.813-34.887-282.255 79.882-282.255 219.291v71.29c0 22.321-18.761 40.435-40.914 40.435-22.141 0-40.115-18.114-40.115-40.435v-71.29c0-144.762 101.697-266.154 238.085-298.482 16.671-3.961 27.86-19.845 27.86-37.095v-35.69c0-19.185-13.895-35.446-32.724-38.204-20.074-2.948-44.946-6.702-61.234-9.466-31.197-5.29-40.869-28.325-40.869-42.969 0-14.832 11.493-41.905 41.881-41.905h269.043c30.397 0 41.892 27.074 41.892 41.905 0 14.646-9.66 37.678-40.869 42.969-16.277 2.764-41.16 6.517-61.222 9.466-18.839 2.758-32.724 19.019-32.724 38.204v34.618c0 17.382 11.379 33.339 28.197 37.171 135.882 30.865 237.76 153.288 237.76 299.46v71.307c-0.001 22.32-18.775 40.419-40.914 40.419zM535.527 139.622c94.52-0.040 171.157 74.36 171.157 166.128v302.428c0 91.728-80.016 166.088-174.471 166.128-94.52 0.040-171.166-74.362-171.166-166.128v-302.428c0-91.727 80.016-166.089 174.48-166.128z"  horiz-adv-x="1024" />

    
    <glyph glyph-name="xuanzhong2" unicode="&#58933;" d="M510.979252 747.476451c-246.843968 0-446.946378-200.101387-446.946378-446.947402 0-246.838851 200.102411-446.941262 446.946378-446.941262 246.838851 0 446.941262 200.102411 446.941262 446.941262C957.920514 547.375064 757.818103 747.476451 510.979252 747.476451L510.979252 747.476451zM436.629917 28.455467 186.047812 284.883721l56.133462 56.127322 194.380082-194.365756L785.068747 499.069895l57.661258-57.541531L436.629917 28.455467 436.629917 28.455467zM436.629917 28.455467"  horiz-adv-x="1024" />

    
    <glyph glyph-name="pingban" unicode="&#59018;" d="M508.133949 31.698189m-36.608779 0a35.775 35.775 0 1 0 73.217558 0 35.775 35.775 0 1 0-73.217558 0ZM846.227154 881.741251 178.254823 881.741251c-52.93563 0-95.996354-43.060725-95.996354-95.996354l0-804.013727c0-52.93563 43.060725-95.996354 95.996354-95.996354L846.227154-114.265184c52.93563 0 95.996354 43.060725 95.996354 95.996354L942.223508 785.74592C942.222485 838.680527 899.16176 881.741251 846.227154 881.741251zM178.254823 817.743682 846.227154 817.743682c17.639752 0 31.998785-14.359033 31.998785-31.998785l0-631.160937L146.256038 154.58396 146.256038 785.74592C146.256038 803.385673 160.615071 817.743682 178.254823 817.743682zM846.227154-50.266591 178.254823-50.266591c-17.639752 0-31.998785 14.359033-31.998785 31.998785L146.256038 90.587414 878.225939 90.587414l0-108.85522C878.225939-35.907559 863.866906-50.266591 846.227154-50.266591z"  horiz-adv-x="1024" />

    
    <glyph glyph-name="tuichu1" unicode="&#58951;" d="M527.270798 480.102778c9.046027 0 16.665565 3.097548 22.862707 9.29469 6.197142 6.200212 9.29469 13.654998 9.29469 22.363334L559.428196 747.599112c0 8.711406-3.097548 16.249079-9.29469 22.614044-6.198166 6.364965-13.817704 9.5454-22.862707 9.5454-8.711406 0-16.166191-3.181459-22.363334-9.5454-6.197142-6.364965-9.29469-13.903661-9.29469-22.614044l0-235.83831c0-8.707312 3.097548-16.163121 9.29469-22.363334C511.104607 483.200326 518.560416 480.102778 527.270798 480.102778zM885.160885 465.33033c-7.135514 28.806069-17.565051 56.106856-31.281447 81.900312-13.716396 25.78834-30.178323 49.79408-49.383734 72.01722-19.206434 22.223141-41.159422 42.117237-65.849754 59.676148-51.996235-1.807159-59.060117-31.861662-54.131875-56.008618 84.438111-52.449559 140.66981-146.015561 140.66981-252.730025 0-164.206876-133.115764-297.322639-297.322639-297.322639S230.538607 205.978491 230.538607 370.185366c0 102.467743 51.837622 192.824657 130.717134 246.288313 3.496637 24.639167-4.517897 56.568367-53.092195 56.688093-23.048949-17.559934-43.900859-37.312814-62.554708-59.265802-18.657942-21.945825-34.294061-45.541219-46.920636-70.78209-12.619412-25.244964-22.360264-51.853995-29.221532-79.839373-6.860245-27.985378-10.284227-56.522318-10.284227-85.60161 0-51.03842 9.599635-98.912777 28.810163-143.637398 19.201318-44.715411 45.540196-83.678818 79.014588-116.874871 33.473369-33.20424 72.568782-59.539025 117.293403-79.018681 44.724621-19.481703 92.325755-29.224602 142.81159-29.224602 51.025117 0 98.908684 9.741875 143.624095 29.224602 44.725644 19.478633 83.682911 45.813419 116.888174 79.018681 33.196053 33.19196 59.534931 72.155367 79.014588 116.874871 19.48375 44.724621 29.220508 92.598978 29.220508 143.633305C895.859551 407.303752 892.290259 436.520167 885.160885 465.33033z"  horiz-adv-x="1024" />

    
    <glyph glyph-name="17" unicode="&#58920;" d="M852.763 850.54h-687.132c-59.921 0-108.127-48.203-108.127-108.127v-687.132c0-59.921 48.203-108.127 108.127-108.127h687.132c59.921 0 108.127 48.203 108.127 108.127v687.132c0 59.273-48.203 108.127-108.127 108.127zM860.586 55.289c0-4.564-3.254-7.814-7.814-7.814h-687.132c-4.564 0-7.814 3.254-7.814 7.814v687.132c0 4.564 3.254 7.814 7.814 7.814h687.132c4.564 0 7.814-3.254 7.814-7.814v-687.132zM673.004 511.865l-196.691 113.323c-41.030 23.451-89.881 23.451-130.919 0s-65.789-65.789-65.789-113.323v-227.316c0-47.54 24.754-89.881 65.789-113.323 20.189-11.724 42.992-17.582 65.789-17.582s44.941 5.868 65.789 17.582l196.691 113.323c41.030 23.451 65.789 65.789 65.789 113.323s-25.402 90.527-66.429 113.981zM622.851 372.482l-196.691-113.323c-13.674-7.814-26.061-2.606-30.617 0s-14.967 10.414-14.967 26.698v227.316c0 15.633 10.414 24.092 14.967 26.698 2.606 1.298 8.454 3.911 15.633 3.911 4.564 0 9.763-1.298 14.967-3.911l196.691-113.323c13.674-7.814 14.967-20.839 14.967-26.698 0.66-6.505-1.298-19.537-14.967-27.356z"  horiz-adv-x="1024" />

    
    <glyph glyph-name="dianshi" unicode="&#58994;" d="M247.936 491.456l87.167 0L296.32 273.344l98.368 0 37.952 218.112 88 0 13.633 78.016L261.568 569.472 247.936 491.456 247.936 491.456zM671.936 372.736l-16.96 196.736-98.752 0 49.601-296.128 98.367 0 155.776 296.128L761.6 569.472 671.936 372.736 671.936 372.736zM670.72 45.824 355.2 45.824c-15.36 0-27.84-12.416-27.84-27.712S339.84-9.6 355.2-9.6l315.52 0c15.36 0 27.84 12.416 27.84 27.712S686.144 45.824 670.72 45.824zM977.855 766.656 43.456 766.656c-20.48 0-32.768-12.224-32.768-32.704l0-596.416c0-20.416 20.48-32.704 40.96-32.704l926.208 0c20.48 0 32.769 12.224 32.769 32.704L1010.625 733.952C1010.688 754.368 998.4 766.656 977.855 766.656zM961.472 170.24c0-10.24-6.144-16.32-16.384-16.32L76.224 153.92c-10.24 0-16.384 6.144-16.384 16.32L59.84 701.312c0 10.24 6.144 16.32 16.384 16.32l868.864 0c10.24 0 16.384-6.144 16.384-16.32L961.472 170.24z"  horiz-adv-x="1024" />

    
    <glyph glyph-name="tupianchulifuwu" unicode="&#59095;" d="M785.856-80.384 151.68-80.384c-81.216 0-147.296 66.08-147.296 147.328L4.384 701.056c0 81.216 66.048 147.296 147.296 147.296l634.144 0c81.216 0 147.296-66.08 147.296-147.296l0-221.312-64 0L869.12 701.056c0 45.952-37.376 83.296-83.296 83.296L151.68 784.352c-45.92 0-83.296-37.344-83.296-83.296l0-634.112c0-45.952 37.344-83.328 83.296-83.328l634.144 0c45.92 0 83.296 37.376 83.296 83.328l0 110.144 64 0 0-110.144C933.12-14.272 867.072-80.384 785.856-80.384zM901.12 294.368c-65.312 0-118.464 53.12-118.464 118.464s53.152 118.496 118.464 118.496 118.464-53.152 118.464-118.496S966.432 294.368 901.12 294.368zM901.12 467.328c-30.016 0-54.464-24.448-54.464-54.496 0-30.016 24.448-54.464 54.464-54.464s54.464 24.416 54.464 54.464C955.584 442.88 931.168 467.328 901.12 467.328zM584.064 63.744 238.144 63.744c-81.216 0-147.296 66.08-147.296 147.328L90.848 556.928c0 81.216 66.048 147.296 147.296 147.296l345.92 0c81.216 0 147.296-66.08 147.296-147.296l0-345.888C731.328 129.856 665.28 63.744 584.064 63.744zM238.144 640.224c-45.92 0-83.296-37.344-83.296-83.296l0-345.888c0-45.952 37.344-83.328 83.296-83.328l345.92 0c45.92 0 83.296 37.376 83.296 83.328L667.36 556.928c0 45.952-37.376 83.296-83.296 83.296L238.144 640.224zM147.424 133.856 98.304 174.848 237.472 341.568 357.568 255.264 532.896 465.248 725.184 201.984 673.504 164.256 529.504 361.344 368.576 168.576 248.48 254.88ZM316.672 381.312c-57.376 0-104.064 46.688-104.064 104.064s46.688 104.064 104.064 104.064 104.064-46.688 104.064-104.064S374.048 381.312 316.672 381.312zM316.672 525.408c-22.08 0-40.064-17.984-40.064-40.064s17.984-40.064 40.064-40.064 40.064 17.984 40.064 40.064S338.752 525.408 316.672 525.408z"  horiz-adv-x="1024" />

    
    <glyph glyph-name="weibiaoti3" unicode="&#58917;" d="M677.465 238.987c0.9-0.562 1.8-0.731 2.756-1.237 13.275-9.787 26.044-20.081 38.081-31.838 12.206-11.756 31.894-11.756 44.1 0.169 12.037 11.756 12.037 30.938-0.169 42.862-44.437 43.369-97.65 75.038-155.194 94.781 78.469 46.237 131.344 130.162 131.344 226.181-0.056 145.631-121.387 264.094-270.506 264.094s-270.506-118.463-270.506-264.094c0-96.919 53.887-181.575 133.875-227.644-158.287-55.8-271.913-203.569-271.913-376.987 0-4.444 1.069-8.55 2.756-12.262 4.556-11.025 15.637-19.013 28.744-19.013 17.1 0 30.938 13.5 30.938 30.206 0 187.988 156.656 341.1 349.313 341.269 2.025 0 4.163-0.169 6.188-0.169 7.987-0.169 16.031-0.506 23.85-1.237 5.85-0.338 11.813-1.237 17.662-1.969 3.656-0.337 7.256-0.9 10.913-1.575 7.538-1.294 14.85-2.531 21.937-4.275 1.069-0.337 2.194-0.562 3.488-0.9 43.875-10.462 85.219-29.531 122.344-56.362zM467.877 366.506c-114.919 0-208.519 91.237-208.519 203.456 0 112.050 93.431 203.456 208.35 203.456 114.919 0 208.35-91.238 208.35-203.456 0-112.444-93.263-203.681-208.181-203.456zM864.721 39.806c-10.912 0-21.825-4.444-29.7-12.094-7.819-7.65-12.375-18.337-12.375-28.969 0-10.687 4.556-21.319 12.375-28.969 7.65-7.65 18.788-12.094 29.7-12.094 10.912 0 21.881 4.444 29.7 12.094 7.819 7.481 12.375 18.337 12.375 28.969 0 10.688-4.556 21.319-12.375 28.969-7.65 7.65-18.788 12.094-29.7 12.094zM951.965 251.306c-11.25 13.669-31.613 16.2-46.012 5.681-67.163-48.938-244.35-177.975-275.963-201.544-39.15-29.137-77.569-87.694-77.569-87.694l5.85-9.956c0 0 38.25 1.238 106.369 41.794 54.225 32.288 217.575 156.15 281.981 205.538 14.569 11.25 16.988 32.006 5.344 46.181v0z"  horiz-adv-x="1025" />

    
    <glyph glyph-name="guanbi" unicode="&#59044;" d="M512 867.498667c-266.939733 0-483.669333-216.405333-483.669333-483.328 0-267.246933 216.746667-483.669333 483.669333-483.669333 266.752 0 483.669333 216.4224 483.669333 483.669333C995.669333 651.093333 778.752 867.498667 512 867.498667zM512-33.28c-230.4 0-417.450667 186.709333-417.450667 417.450667C94.549333 614.570667 281.6 801.28 512 801.28c230.212267 0 417.450667-186.709333 417.450667-417.109333C929.450667 153.429333 742.212267-33.28 512-33.28zM727.466667 194.901333c-14.165333-16.213333-33.962667-24.405333-53.930667-24.405333-16.896 0-33.621333 5.802667-47.291733 17.749333l-112.7936 99.157333-109.755733-102.570667c-13.824-12.8-31.214933-19.285333-48.7936-19.285333-19.114667 0-38.229333 7.68-52.394667 22.869333-27.136 28.842667-25.429333 74.257067 3.413333 101.205333l99.328 92.842667-102.058667 89.6c-29.696 26.112-32.768 71.338667-6.656 101.034667 14.165333 16.213333 33.962667 24.405333 53.930667 24.405333 16.878933 0 33.621333-5.802667 47.274667-17.749333l112.810667-99.157333 109.738667 102.570667c13.824 12.8 31.402667 19.285333 48.810667 19.285333 19.285333 0 38.212267-7.662933 52.3776-22.698667 27.153067-28.996267 25.429333-74.3936-3.396267-101.358933l-99.328-92.842667 102.0416-89.6C750.506667 269.841067 753.5616 224.597333 727.466667 194.901333z"  horiz-adv-x="1024" />

    
    <glyph glyph-name="shouye2" unicode="&#58977;" d="M762.744903-127.967999l-112.764455 0c-22.815283 0-41.150706 17.951436-41.822685 40.798717l0 286.486994c0 53.086331-43.166643 96.316972-96.124978 96.316972-53.054332 0-96.188976-43.230641-96.188976-96.316972l-0.127996-285.431027c0-23.103274-18.783409-41.886683-41.854684-41.886683L261.032675-127.999998c-65.629937 0-119.004259 53.470319-119.004259 119.132255L142.028417 344.40115 41.839566 344.40115c-16.767473 0-31.902997 10.015685-38.558788 25.599195-6.559794 15.807503-3.103902 33.662942 8.767724 45.694563L474.049979 884.032186c15.647508 15.999497 44.094614 15.999497 59.870118-0.255992l87.325255-90.173165c0.63998 22.463294 19.199396 40.574724 41.822685 40.574724l99.676866 0c23.103274 0 41.822685-18.783409 41.822685-41.854684l0-186.650132 205.849529-188.570072c12.7356-11.679633 16.991466-29.759064 10.751662-45.982554-6.175806-15.999497-21.887312-26.783158-39.038773-26.783158l-100.316846 0 0-353.236895C881.81316-74.49768 828.406839-127.967999 762.744903-127.967999z"  horiz-adv-x="1025" />

    
    <glyph glyph-name="shouye3" unicode="&#58987;" d="M556.571636 829.75218l-89.143273 0L66.257541 406.298865c0 0 0.787946-89.149413 44.577265-89.149413l66.859757 0 0-289.753243c0-87.320765 89.148389-89.149413 89.148389-89.149413l178.295755 0L445.138708 250.289696c0 22.326495 22.288632 22.284539 22.288632 22.284539l89.147366 0c0 0 22.288632-0.73985 22.288632-22.284539l0-312.042899 178.295755 0c91.541903 0 89.148389 89.149413 89.148389 89.149413L846.307484 339.439108l66.86078 0c43.181475 0 44.572148 66.855664 44.572148 66.855664L556.571636 829.75218 556.571636 829.75218zM556.571636 829.75218"  horiz-adv-x="1024" />

    
    <glyph glyph-name="wenhao" unicode="&#58918;" d="M457.858404 203.24831l0 77.499072c-1.423419 29.723975 2.638083 56.089459 12.199856 79.098499 9.561773 22.992667 28.492938 43.698245 56.809867 62.102407l-1.071402 0c24.76708 19.107173 45.648666 36.087916 62.645782 50.957579 16.980743 14.869662 29.371958 27.612894 37.158295 38.229696 14.150278 18.387789 21.937638 42.802852 23.360034 73.246211 0.704035 17.700127-2.318812 33.800827-9.033747 48.319495-6.714935 14.502295-16.452717 28.828582-29.195949 42.995233-26.190499 26.190499-59.799968 39.285748-100.859106 39.285748-38.933731 0-70.784136-15.397688-95.551216-46.193065-24.783453-30.795377-38.933731-78.746482-42.467207-143.854339l-85.989443 9.561773c0.704035 41.747823 6.890944 78.906118 18.563798 111.460558s27.421536 59.991326 47.248094 82.279958 43.186591 39.285748 70.080102 50.972928c26.89351 11.67183 56.265468 17.524119 88.115873 17.524119 67.234287 0 121.741715-19.826558 163.504888-59.4633 43.171242-41.060161 64.75584-92.01774 64.75584-152.888086 0-22.64065-3.006474-43.698245-9.017374-63.157435-6.011924-19.47454-13.974269-36.983309-23.88806-52.555983-10.616802-16.276708-26.190499-33.976836-46.720068-53.084009-20.529569-19.123546-46.000684-39.285748-76.428693-60.519352-14.166651-9.91379-23.360034-19.650549-27.612894-29.195949-4.252861-9.561773-6.363941-24.240077-6.363941-44.065612l0-78.555124L457.858404 203.249333zM548.100708 5.766586l-90.243327 0L457.857381 121.496377l90.243327 0L548.100708 5.766586z"  horiz-adv-x="1024" />

    
    <glyph glyph-name="shangchuan" unicode="&#59062;" d="M844.205101 684.816207 713.806215 684.816207l0-74.517157 74.513064 0c20.566408 0 37.258579-16.688077 37.258579-37.254485l0-409.834132c0-20.566408-16.692171-37.254485-37.258579-37.254485L266.717597 125.955946c-20.566408 0-37.259602 16.688077-37.259602 37.254485L229.457995 573.044564c0 20.566408 16.693194 37.254485 37.259602 37.254485l74.513064 0 0 74.517157-130.399909 0c-30.867008 0-55.885821-25.018813-55.885821-55.885821l0-521.605775c0-30.867008 25.018813-55.886845 55.885821-55.886845l633.374348 0c30.871101 0 55.890938 25.019837 55.890938 55.886845L900.096039 628.930385C900.096039 659.797393 875.076202 684.816207 844.205101 684.816207L844.205101 684.816207zM528.879436 736.306928 322.603419 530.035004l54.526871-54.527894 113.131617 113.131617L490.261906 242.649692c0-15.425318 12.519128-27.945469 27.944446-27.945469l18.627243 0c15.426341 0 27.941376 12.520151 27.941376 27.945469L564.774971 604.512253l129.340787-129.320321 52.683896 52.679803L547.490306 727.200526l-4.752234-4.752234L528.879436 736.306928 528.879436 736.306928z"  horiz-adv-x="1024" />

    
    <glyph glyph-name="iconfontgongxiang" unicode="&#58929;" d="M409.620261 733.946161c-81.248466 0-147.349953-70.046333-147.349953-156.141176 0-86.098937 66.101487-156.141176 147.349953-156.141176 81.252559 0 147.354046 70.042239 147.354046 156.141176C556.974307 663.898805 490.873844 733.946161 409.620261 733.946161zM451.913507 193.956689c0 94.572936 51.748594 177.052438 128.467907 220.692355-9.414417 6.544043-19.146059 12.577456-29.173436 18.026562-35.936467-38.872333-86.127589-63.061244-141.587716-63.061244-55.544037 0-105.803721 24.261567-141.751445 63.238276-69.473281-37.47859-124.45757-101.792361-152.964834-181.645037l-1.302669-3.65832 0-74.736145c0-16.953114 6.169513-32.883945 17.337877-44.838208 11.17655-11.989055 26.045189-18.594497 41.869596-18.594497l293.561989 0C457.018781 135.835967 451.913507 164.297183 451.913507 193.956689zM874.797863 151.667537c-17.71036 0-34.143635-5.454222-47.730071-14.760169l-122.543987 70.748321c-1.186012 7.27673-3.305279 14.236236-6.222725 20.763906l99.617835 57.514925c10.562567-4.740978 22.262026-7.40055 34.590819-7.40055 46.711881 0 84.577281 37.865399 84.577281 84.577281 0 46.711881-37.865399 84.577281-84.577281 84.577281-46.711881 0-84.577281-37.865399-84.577281-84.577281 0-18.009166 5.64558-34.69008 15.239076-48.406476l-91.612511-52.892651c-14.09195 10.503215-31.564903 16.721847-50.491974 16.721847-46.711881 0-84.577281-37.865399-84.577281-84.577281 0-46.711881 37.865399-84.577281 84.577281-84.577281 35.337833 0 65.596997 21.677719 78.245062 52.453652l99.555413-57.478086c-5.529947-11.244089-8.646937-23.88806-8.646937-37.264719 0-46.711881 37.869492-84.577281 84.577281-84.577281 46.711881 0 84.577281 37.865399 84.577281 84.577281C959.37412 113.799068 921.508721 151.667537 874.797863 151.667537z"  horiz-adv-x="1024" />

    
    <glyph glyph-name="chengyuanliebiao" unicode="&#59064;" d="M486.53656 227.064738c-19.246343 3.114944-19.679202 57.05853-19.679202 57.05853s56.541761 57.06774 68.867484 133.801379c33.146934 0 53.617152 81.572854 20.470217 110.273523 1.379417 30.213116 42.612517 237.19112-166.106132 237.19112-208.711486 0-167.483502-206.976982-166.103062-237.19112-33.152051-28.700669-12.678764-110.273523 20.469194-110.273523 12.326746-76.734662 68.867484-133.801379 68.867484-133.801379s-0.437975-53.943586-19.685341-57.05853C231.660662 217.010755 0.20722 112.930281 0.20722-1.195989L390.084834-1.195989l389.881708 0C779.966543 112.930281 548.517193 217.010755 486.53656 227.064738L486.53656 227.064738zM745.624387 240.389208c-18.149359 2.933819-18.559705 53.80237-18.559705 53.80237s53.315276 53.81158 64.933895 126.169561c31.260981 0 50.566676 76.928067 19.310811 103.991446 1.300622 28.487821 40.175001 223.665059-156.635433 223.665059-19.738553 0-37.099966-1.968841-52.373835-5.53097 85.383646-57.287751 60.474326-186.428993 59.407018-209.804377 33.146934-28.701692 12.676717-110.276592-20.475334-110.276592-9.552563-59.489906-45.677319-107.155509-61.434188-125.573997-0.989537-2.743484-2.320858-8.893554-2.320858-8.893554s-2.661619-18.633383-1.150196-33.044604c2.797719-11.595083 7.573489-22.024619 15.728216-23.345708 57.993832-9.41544 264.37525-101.146655 290.659893-206.411093l139.606595 0C1022.322289 132.761955 804.06745 230.905206 745.624387 240.389208L745.624387 240.389208zM745.624387 240.389208"  horiz-adv-x="1024" />

    
    <glyph glyph-name="zuirehotxiankuang" unicode="&#59447;" d="M1216 704 256 704C185.6 704 128 646.4 128 576l0-448c0-70.4 57.6-128 128-128l960 0c70.4 0 128 57.6 128 128L1344 576C1344 646.4 1286.4 704 1216 704zM1280 128c0-35.2-28.8-64-64-64L256 64c-35.2 0-64 28.8-64 64L192 576c0 35.2 28.8 64 64 64l960 0c35.2 0 64-28.8 64-64L1280 128zM544 512C526.08 512 512 497.92 512 480L512 384 384 384 384 480C384 497.92 369.92 512 352 512 334.08 512 320 497.92 320 480l0-256C320 206.08 334.08 192 352 192 369.92 192 384 206.08 384 224L384 320l128 0 0-96C512 206.08 526.08 192 544 192 561.92 192 576 206.08 576 224l0 256C576 497.92 561.92 512 544 512zM1120 512l-128 0C974.08 512 960 497.92 960 480 960 462.08 974.08 448 992 448L1024 448l0-224c0-17.92 14.08-32 32-32 17.92 0 32 14.08 32 32L1088 448l32 0C1137.92 448 1152 462.08 1152 480 1152 497.92 1137.92 512 1120 512zM768 512c-70.4 0-128-57.6-128-128l0-64c0-70.4 57.6-128 128-128 70.4 0 128 57.6 128 128L896 384C896 454.4 838.4 512 768 512zM832 320c0-35.2-28.8-64-64-64-35.2 0-64 28.8-64 64L704 384c0 35.2 28.8 64 64 64 35.2 0 64-28.8 64-64L832 320z"  horiz-adv-x="1792" />

    
    <glyph glyph-name="dianshi1" unicode="&#58995;" d="M824.67786 1.638569 195.955462 1.638569c-48.898687 0-87.320765 38.424124-87.320765 87.326904L108.634698 543.035086c0 48.90278 38.422078 87.324858 87.320765 87.324858l628.721375 0c48.898687 0 87.320765-38.422078 87.320765-87.324858l0-457.564203C911.998625 40.06167 873.576547 1.638569 824.67786 1.638569L824.67786 1.638569zM195.955462 595.432457c-27.941376 0-52.392254-20.957311-52.392254-52.396347l0-457.564203c0-27.947516 24.450878-48.90278 52.392254-48.90278l628.721375 0c27.941376 0 52.392254 24.449855 52.392254 52.396347L877.069091 543.035086c0 31.439036-24.451902 52.396347-52.392254 52.396347L195.955462 595.431433 195.955462 595.432457zM195.955462 595.432457M730.368938 127.386528 290.263361 127.386528c-27.940352 0-52.392254 24.445762-52.392254 52.390207L237.871107 452.220754c0 27.945469 24.451902 52.392254 52.392254 52.392254l440.105576 0c27.941376 0 52.392254-24.446785 52.392254-52.392254l0-272.444019C782.762215 151.83229 758.310314 127.386528 730.368938 127.386528L730.368938 127.386528zM290.263361 469.686545c-10.476609 0-17.463744-6.984065-17.463744-17.464767l0-272.444019c0-10.478655 6.987135-17.461697 17.463744-17.461697l440.105576 0c10.476609 0 17.463744 6.983041 17.463744 17.461697L747.832681 452.220754c0 10.480702-6.987135 17.464767-17.463744 17.464767L290.263361 469.685521 290.263361 469.686545zM290.263361 469.686545M510.318196 595.432457l-6.987135 0L192.465988 735.146499c-6.987135 6.987135-10.480702 17.463744-6.987135 24.450878 3.493567 10.477632 13.970176 13.9712 20.957311 10.477632l303.882032-136.224568 303.877939 136.224568c10.480702 3.493567 17.463744 0 24.451902-6.984065 6.987135-6.987135 0-17.463744-6.987135-24.450878L520.795828 598.922954C513.80767 595.432457 513.80767 595.432457 510.318196 595.432457L510.318196 595.432457zM510.318196 595.432457"  horiz-adv-x="1024" />

    
    <glyph glyph-name="gongsijianjie" unicode="&#59052;" d="M896 896 128 896C57.6 896 0 838.4 0 768l0-768c0-70.4 57.6-128 128-128l768 0c70.4 0 128 57.6 128 128L1024 768C1024 838.4 966.4 896 896 896zM960 32c0-53.0176-42.9824-96-96-96L160-64c-53.0176 0-96 42.9824-96 96L64 736c0 53.0176 42.9824 96 96 96l704 0c53.0176 0 96-42.9824 96-96L960 32zM800 640l-192 0c-17.59744 0-32 14.39744-32 32l0 0c0 17.59744 14.40256 32 32 32l192 0c17.60256 0 32-14.39744 32-32l0 0C832 654.39744 817.60256 640 800 640zM800 448l-192 0c-17.59744 0-32 14.40256-32 32l0 0c0 17.59744 14.40256 32 32 32l192 0c17.60256 0 32-14.40256 32-32l0 0C832 462.39744 817.60256 448 800 448zM800 256 224 256c-17.59744 0-32 14.40256-32 32l0 0c0 17.59744 14.39744 32 32 32l576 0c17.60256 0 32-14.40256 32-32l0 0C832 270.39744 817.60256 256 800 256zM800 64 224 64c-17.59744 0-32 14.40256-32 32l0 0c0 17.60256 14.39744 32 32 32l576 0c17.60256 0 32-14.40256 32-32l0 0C832 78.39744 817.60256 64 800 64zM448 640c0 35.34848-28.65152 64-64 64L256 704c-35.34848 0-64-28.65152-64-64l0-128c0-35.34848 28.65152-64 64-64l128 0c35.34848 0 64 28.65152 64 64L448 640zM384 544c0-17.60256-14.40256-32-32-32l-64 0C270.40256 512 256 526.39744 256 544l0 64c0 17.60256 14.40256 32 32 32l64 0c17.60256 0 32-14.40256 32-32L384 544z"  horiz-adv-x="1024" />

    
    <glyph glyph-name="falv" unicode="&#58932;" d="M349.263592 717.281619l224.252437-123.694183c6.198166-3.396353 14.112416-1.346671 17.689894 4.553713l6.440689 10.685363c3.602038 5.895267 1.478677 13.488199-4.688789 16.908088l-224.267786 123.669624c-6.192026 3.420913-14.156418 1.376347-17.679661-4.498454l-6.500041-10.716063c-3.566222-5.918803-1.472538-13.488199 4.749164-16.908088l0 0L349.263592 717.281619 349.263592 717.281619zM155.056448 395.93482 379.308885 272.218124c6.198166-3.343141 14.113439-1.328251 17.684778 4.547573l6.470365 10.685363c3.596921 5.870708 1.450025 13.517875-4.722558 16.938788L174.463451 428.029796c-6.193049 3.426029-14.113439 1.346671-17.664312-4.519943l-6.466272-10.69048C146.711386 406.953781 148.83577 399.380292 155.056448 395.93482L155.056448 395.93482 155.056448 395.93482 155.056448 395.93482zM945.848036 244.841613 497.03003 467.024925l60.300364 99.806123c3.602038 5.89936 1.449002 13.493316-4.700045 16.918321L350.809808 695.049269c-6.197142 3.400446-14.161534 1.351787-17.712407-4.548596L190.649085 454.888514c-3.498684-5.900384-1.399883-13.517875 4.744048-16.918321l201.87887-111.297852c6.14393-3.421936 14.112416-1.351787 17.630542 4.517897l60.397578 99.836823 425.828408-260.19709c5.996574-3.671623 13.843286-1.820462 17.385972 4.050246l32.373315 53.575196C954.411062 234.30156 952.142392 241.694947 945.848036 244.841613L945.848036 244.841613 945.848036 244.841613 945.848036 244.841613zM1016.687431 213.566306l-22.48613 12.342096c-6.119371 3.399423-14.136975 1.345648-17.679661-4.547573l-38.872333-64.244186c-3.542686-5.868661-1.366114-13.487176 4.753257-16.883529l22.427802-12.341073c6.167466-3.444449 14.135952-1.37123 17.709337 4.524037l38.838563 64.24214C1024.925046 202.557578 1022.826245 210.170976 1016.687431 213.566306L1016.687431 213.566306 1016.687431 213.566306 1016.687431 213.566306zM532.105897 137.261433l-27.028587 0c3.390213 3.645017-8.271384 0.268106-8.271384 5.51869l0 64.170508L66.229377 206.950631l0-64.170508c0-5.240351-22.980387-1.868557-19.544125-5.51869l-27.025517 0C7.856922 137.261433-2.3e-05 121.89956-2.3e-05 110.709707l0-64.169485c0-11.164271 7.881504-31.650861 19.659759-31.650861l512.441045 0c11.789511 0 30.92329 20.48659 30.92329 31.650861l0 64.169485C563.02407 121.869884 543.896431 137.261433 532.105897 137.261433L532.105897 137.261433 532.105897 137.261433 532.105897 137.261433zM496.805926 46.535105 66.229377 46.535105c-12.351306 0-33.120328 20.286022-33.120328 32.075533 0.038886 11.789511 20.773116 32.123628 33.120328 32.099069l430.576549 0c12.388145 0 33.148981-20.334117 33.099862-32.099069C529.905789 66.791451 509.195094 46.535105 496.805926 46.535105L496.805926 46.535105 496.805926 46.535105 496.805926 46.535105zM496.805926 46.535105"  horiz-adv-x="1026" />

    
    <glyph glyph-name="shouye" unicode="&#58903;" d="M879.665731 751.033327c-107.327424 107.327424-281.937231 107.327424-389.264655 0L324.875159 585.50741l-38.772049 38.765909c-12.196787 12.196787-31.974225 12.196787-44.150546 0-12.196787-12.196787-12.196787-31.963992 0-44.150546l38.772049-38.765909L145.286967 405.919219c-107.327424-107.317191-107.327424-281.947464 0-389.264655 53.6632-53.6632 124.148531-80.495312 194.632839-80.495312s140.968615 26.832112 194.632839 80.495312L669.991314 152.094256l35.592636-35.592636c6.097882-6.097882 14.086833-9.147334 22.075785-9.147334 7.988951 0 15.97688 3.049452 22.075785 9.147334 12.196787 12.186554 12.196787 31.963992 0 44.150546l-35.592636 35.592636 165.523871 165.523871C986.993155 469.085864 986.993155 643.716136 879.665731 751.033327zM654.78703 225.190041c-2.889817-1.458211-5.65479-3.25616-8.069793-5.671163-2.416026-2.413979-4.214998-5.179976-5.674233-8.072863l-150.640905-150.641929c-82.975806-82.975806-217.98878-82.975806-300.963563 0s-82.975806 217.98878 0 300.963563l345.114109 345.114109c41.487903 41.487903 95.985098 62.231343 150.482293 62.231343s108.99439-20.74344 150.482293-62.231343c82.975806-82.975806 82.975806-217.98878 0-300.963563L654.78703 225.190041zM414.266072 496.12059c-12.196787 12.196787-31.954783 12.196787-44.150546 0-12.196787-12.186554-12.196787-31.963992 0-44.150546l207.316719-207.316719c6.097882-6.097882 14.086833-9.147334 22.075785-9.147334 7.988951 0 15.97688 3.049452 22.075785 9.147334 12.196787 12.186554 12.196787 31.963992 0 44.150546L414.266072 496.12059zM625.576755 608.946238c7.988951 0 15.97688 3.049452 22.075785 9.147334l22.847357 22.847357c12.196787 12.186554 12.196787 31.963992 0 44.150546-12.196787 12.196787-31.954783 12.196787-44.150546 0l-22.847357-22.847357c-12.196787-12.186554-12.196787-31.963992 0-44.150546C609.599875 611.995691 617.587803 608.946238 625.576755 608.946238zM778.711458 532.740626l-22.857591-22.847357c-12.196787-12.196787-12.196787-31.963992-0.010233-44.160779 6.097882-6.097882 14.097066-9.147334 22.084994-9.147334s15.97688 3.049452 22.075785 9.137101l22.857591 22.847357c12.196787 12.196787 12.196787 31.963992 0.010233 44.160779C810.67545 544.926156 790.907221 544.915923 778.711458 532.740626zM662.457734 476.78522c-0.230244-0.042979-23.586185-4.340865-38.121226 10.194176-14.132882 14.132882-10.122545 35.721573-9.824763 37.205367 3.711532 16.683984-6.690376 33.296337-23.378453 37.176714-16.791431 3.927449-33.583886-6.504134-37.503149-23.295566-4.833075-20.679995-4.675486-64.015989 26.550703-95.242178 31.075763-31.075763 74.512041-31.664164 95.285157-27.112498 16.695241 3.65832 27.137057 20.022009 23.687492 36.753065C695.714162 469.199451 679.242002 480.02296 662.457734 476.78522z"  horiz-adv-x="1024" />

    
    <glyph glyph-name="shouye1" unicode="&#58937;" d="M759.048629 344.262974 440.73184 25.945161c-32.891108-32.850176-86.756923-32.443923-120.096239 0.89437L155.479097 191.997058c-33.348526 33.358759-33.745569 87.224574-0.89437 120.096239l318.316789 318.316789c12.20088 12.190647 12.20088 31.976272 0 44.166919-12.20088 12.20088-31.966039 12.20088-44.166919 0L110.416785 356.260216c-57.211003-57.221236-56.814983-150.729933 0.89437-208.429053l60.494793-60.494793-97.859795-97.859795c-12.20088-12.190647-12.20088-31.976272 0-44.166919 6.099928-6.099928 14.09195-9.150404 22.082948-9.150404s15.98302 3.050476 22.082948 9.150404l97.859795 97.859795 60.494793-60.494793c29.017894-29.017894 67.073628-43.546795 105.038288-43.546795 37.517475 0 74.942853 14.20349 103.390765 42.651402l318.316789 318.316789c12.20088 12.190647 12.20088 31.976272 0 44.166919C791.014668 356.46283 771.249509 356.46283 759.048629 344.262974zM906.84986 530.476049c6.099928-6.099928 14.09195-9.150404 22.082948-9.150404 7.992021 0 15.98302 3.050476 22.082948 9.150404 12.20088 12.190647 12.20088 31.976272 0 44.166919L703.281511 822.378236c-12.20088 12.20088-31.966039 12.20088-44.166919 0-12.20088-12.190647-12.20088-31.976272 0-44.166919l101.784174-101.784174-68.928882-68.928882L498.654041 800.814104c-12.20088 12.20088-31.966039 12.20088-44.166919 0-12.20088-12.190647-12.20088-31.976272 0-44.166919l430.797583-430.797583c6.099928-6.099928 14.09195-9.150404 22.082948-9.150404 7.990998 0 15.98302 3.050476 22.082948 9.150404 12.20088 12.190647 12.20088 31.976272 0 44.166919L736.136803 563.331341l68.928882 68.928882L906.84986 530.476049zM449.40436 518.621047l-22.855544-22.855544c-12.20088-12.190647-12.20088-31.976272 0-44.166919 6.099928-6.099928 14.09195-9.150404 22.082948-9.150404 7.990998 0 15.98302 3.050476 22.082948 9.150404l22.855544 22.855544c12.20088 12.190647 12.20088 31.976272 0 44.166919C481.370399 530.821927 461.60524 530.821927 449.40436 518.621047zM623.121843 299.170986l22.865777 22.855544c12.20088 12.20088 12.20088 31.976272 0.010233 44.177152-12.20088 12.20088-31.976272 12.190647-44.177152 0.010233l-22.865777-22.856567c-12.20088-12.20088-12.20088-31.976272-0.010233-44.177152 6.099928-6.099928 14.102183-9.150404 22.093181-9.150404S617.021915 293.080268 623.121843 299.170986zM403.764903 384.434905c-16.798595 3.929496-33.596166-6.506181-37.517475-23.303752-4.834098-20.687158-4.676509-64.039525 26.560936-95.27697 31.085996-31.087019 74.538647-31.676443 95.318926-27.121707 16.70138 3.659343 27.14729 20.029172 23.695678 36.766368-3.439332 16.740266-19.917632 27.567869-36.70804 24.329105-0.230244-0.042979-23.595394-4.342912-38.136575 10.19827-14.137998 14.137998-10.125615 35.734876-9.827833 37.219693C430.865121 363.933989 420.458097 380.552481 403.764903 384.434905z"  horiz-adv-x="1024" />

    
    <glyph glyph-name="zuijinguanzhu" unicode="&#58980;" d="M943.842891 358.514559c-55.087643-64.72821-181.996031-226.745211-436.343903-226.745211-210.880895 0-344.577896 146.871045-430.222485 239.505839-18.674315 20.22667-18.204617 70.091358 5.158487 94.554516 75.04723 78.634942 210.209606 236.304937 425.065022 236.304937 220.608443 0 380.871497-184.562483 439.034175-246.1297C963.594747 437.982472 968.89445 387.930519 943.842891 358.514559L943.842891 358.514559 943.842891 358.514559zM513.248945 619.222279c-112.862487 0-204.355271-91.272773-204.355271-203.870224 0-112.554472 91.492784-203.867154 204.355271-203.867154 112.844068 0 204.357318 91.311659 204.357318 203.867154C717.606263 527.949506 626.0705 619.222279 513.248945 619.222279L513.248945 619.222279 513.248945 619.222279zM513.248945 293.417959c-67.518766 0-122.239042 54.639434-122.239042 121.912607 0 67.360154 54.698786 121.9167 122.239042 121.9167 67.462484 0 122.220622-54.578036 122.220622-121.9167C635.447055 348.057393 580.710406 293.417959 513.248945 293.417959L513.248945 293.417959 513.248945 293.417959zM513.248945 293.417959"  horiz-adv-x="1024" />

    
    <glyph glyph-name="icon" unicode="&#58978;" d="M637.781728 309.854303c-17.247826 0-31.233352-13.979386-31.233352-31.233352l0-30.469965c0-17.252943 13.984503-31.233352 31.233352-31.233352s31.233352 13.979386 31.233352 31.233352l0 30.469965C669.01508 295.874917 655.030577 309.854303 637.781728 309.854303zM881.550661 309.854303c-17.247826 0-31.233352-13.979386-31.233352-31.233352l0-30.469965c0-17.252943 13.984503-31.233352 31.233352-31.233352s31.233352 13.979386 31.233352 31.233352l0 30.469965C912.784012 295.874917 898.79951 309.854303 881.550661 309.854303zM836.46072 168.797683c-14.544251 9.323343-33.845853 5.053086-43.148729-9.455349-0.121773-0.193405-13.379729-19.448958-33.967626-19.448958-20.008706 0-32.4429 18.127869-33.276894 19.368116-9.17087 14.436804-28.27395 18.818601-42.828434 9.760295-14.655791-9.099239-19.154245-28.355815-10.04989-43.00649 11.209296-18.046005 41.973974-48.587602 86.155219-48.587602 43.957141 0 75.098395 30.308283 86.571704 48.222281C855.218946 140.177855 850.984505 159.494807 836.46072 168.797683zM922.18922 8.871297 459.417411 8.871297c-17.247826 0-31.233352-13.979386-31.233352-31.233352s13.984503-31.233352 31.233352-31.233352l462.770785 0c17.247826 0 31.233352 13.979386 31.233352 31.233352S939.437046 8.871297 922.18922 8.871297zM500.767168 190.565453c2.084475 2.206248 3.833305 4.717442 5.195326 7.432273l2.918469 5.825682c3.218298 6.42534 4.122901 13.756305 2.562359 20.771069l-8.413624 37.841863 16.897855 21.147646c10.767228 13.481036 8.571213 33.134655-4.90573 43.900859-13.475919 10.767228-33.129538 8.571213-43.895743-4.900613l-26.230408-32.828686c-5.90243-7.391341-8.138354-17.050328-6.089695-26.281573l8.748245-39.33589c-0.426719-0.539282-0.884137-1.098008-1.362021-1.697665C299.587216 40.043251 207.474308 3.614573 164.727739-1.519354c-9.525957 0.274246-21.228487 3.019777-27.435862 6.161327l254.260891 312.940338c9.846252 12.119015 9.206686 29.575596-1.337461 40.932248-2.292206 2.908236-6.476505 10.003841-7.167237 12.261255-1.087774 5.409197 3.14155 11.946077 4.316306 13.359262 0.38681 0.426719 0.762363 0.854461 1.12359 1.301645l293.820885 357.990371c0.224104 0.274246 0.442068 0.549515 0.655939 0.828878 10.17678 13.288654 25.010627 21.833261 41.781592 24.054859 16.775059 2.242064 33.32192-2.14485 46.610574-12.32777 27.603685-21.137413 32.859385-60.788481 12.180414-87.811951l-218.138182-271.427876c-10.807137-13.441127-8.667404-33.103956 4.77884-43.911092 13.461593-10.796904 33.109072-8.67252 43.911092 4.789073L832.67858 629.617024c20.318768 26.535353 29.072129 59.491952 24.654516 92.799546-4.417613 33.311687-21.467941 62.847373-48.003294 83.161025-26.53126 20.318768-59.481719 29.113061-92.799546 24.654516-33.124422-4.39203-62.511729-21.274536-82.815147-47.556109L340.52458 425.463344c-4.996804-5.78475-25.676799-32.229029-18.732643-66.939575 1.260713-6.303566 3.90903-12.932544 7.03523-19.083637L77.916581 30.618601c-4.524037-5.561669-6.995321-12.516058-6.995321-19.693528l0-5.825682c0-0.864694 0.035816-1.728364 0.106424-2.593058 3.828188-45.944402 50.591235-66.512856 95.233991-66.512856 1.077541 0 2.160199 0.061398 3.232624 0.172939 91.777263 9.546424 201.25056 92.702332 325.384765 247.139703C497.685993 186.793546 499.66916 189.294506 500.767168 190.565453z"  horiz-adv-x="1024" />

    
    <glyph glyph-name="icon1" unicode="&#58979;" d="M944.328449 695.038012c-39.214117 48.900733-308.282249 69.843718-394.127406 68.314898-17.234523-0.320295-30.944779-14.552437-30.624485-31.782867s14.248516-30.965246 31.782867-30.624485c128.009466 2.514263 316.607868-28.003797 345.134575-46.223764 14.009062-24.361851-43.760666-141.719722-134.110417-230.42809-62.432934-61.300135-115.767654-86.058005-163.05361-75.766614-16.848737 3.738138-33.469276-6.989181-37.141922-23.832801s7.004531-33.474392 23.843034-37.141922c11.576663-2.529613 23.213701-3.799536 34.94693-3.799536 58.678424 0 119.603005 31.676443 185.129394 96.003518C874.647437 447.038732 1004.603231 619.850589 944.328449 695.038012zM502.195703 302.393377c-16.243963 5.689582-34.068933-2.865257-39.783075-19.119453-20.170388-57.500599-67.375503-88.688925-113.030309-118.840642-10.017144-6.613628-19.779486-13.06455-28.989241-19.597337-11.114129-7.883551-22.029736-15.827477-32.615838-23.528879-28.358885-20.632923-66.262146-48.215118-83.111906-53.924143-4.728698 11.103896-7.888667 40.656979-10.483772 64.926732-5.938246 55.550177-14.07046 131.641179-47.676859 220.797755C110.654192 448.267722 125.420501 563.299619 181.610244 626.620783c41.48995 46.762023 129.421628 72.616878 241.232157 71.27123 0.14224-0.005117 0.279363-0.005117 0.421602-0.005117 17.042141 0 30.970362 13.704117 31.193443 30.797423 0.228197 17.234523-13.557784 31.391964-30.792307 31.615045-76.452229 0.954745-215.443817-9.650801-288.74631-92.25003-71.814606-80.942497-91.071182-219.497133-46.818305-336.946079 30.792307-81.709977 38.436404-153.219637 44.019563-205.426673 6.435573-60.172451 11.515265-107.707071 54.528917-119.856785 4.526083-1.269923 9.153474-1.890047 13.912871-1.890047 31.995715 0 70.001307 27.663036 123.9408 66.907852 10.382465 7.55814 21.095457 15.350616 31.995715 23.081695 8.665357 6.145977 17.859763 12.211113 27.287483 18.438954 49.180096 32.478715 110.393249 72.91159 137.52826 150.253072C527.019065 278.875754 518.460132 296.684352 502.195703 302.393377zM358.023116 626.423285c-17.234523 0-31.208792-13.974269-31.208792-31.208792l0-30.441313c0-17.23964 13.974269-31.208792 31.208792-31.208792s31.208792 13.969153 31.208792 31.208792l0 30.441313C389.231909 612.449016 375.258663 626.423285 358.023116 626.423285zM601.602737 626.423285c-17.234523 0-31.208792-13.974269-31.208792-31.208792l0-30.441313c0-17.23964 13.974269-31.208792 31.208792-31.208792s31.208792 13.969153 31.208792 31.208792l0 30.441313C632.81153 612.449016 618.83726 626.423285 601.602737 626.423285zM556.545542 485.481276c-14.532995 9.31618-33.819247 5.048993-43.11496-9.448186-0.121773-0.193405-13.369495-19.434631-33.94102-19.434631-19.978007 0-32.401967 18.093077-33.245172 19.352767-9.15859 14.415314-28.262694 18.804275-42.794665 9.753131-14.644535-9.092076-19.139919-28.333302-10.042727-42.97272 11.200086-18.032702 41.942251-48.550763 86.082564-48.550763 43.922349 0 75.040067 30.283724 86.504166 48.184419C575.289442 456.882937 571.058071 476.185562 556.545542 485.481276z"  horiz-adv-x="1024" />

    
    <glyph glyph-name="icon2" unicode="&#58981;" d="M376.916419 553.693844c-17.249873 0-31.236422-13.981433-31.236422-31.236422l0-30.483268c0-17.254989 13.986549-31.236422 31.236422-31.236422 17.249873 0 31.236422 13.981433 31.236422 31.236422l0 30.483268C408.15284 539.712411 394.166291 553.693844 376.916419 553.693844zM620.710934 553.693844c-17.249873 0-31.236422-13.981433-31.236422-31.236422l0-30.483268c0-17.254989 13.986549-31.236422 31.236422-31.236422s31.236422 13.981433 31.236422 31.236422l0 30.483268C651.947356 539.712411 637.960807 553.693844 620.710934 553.693844zM575.615876 412.621874c-14.540158 9.324366-33.854039 5.053086-43.152822-9.456373-0.121773-0.193405-13.380752-19.451004-33.971719-19.451004-20.010753 0-32.44597 18.129916-33.279964 19.370163-9.171893 14.428617-28.27702 18.820648-42.832528 9.761318-14.656815-9.100262-19.156292-28.358885-10.050913-43.010583 11.210319-18.048051 41.97909-48.592718 86.164429-48.592718 43.961234 0 75.106582 30.311353 86.580914 48.227398C594.376149 383.998977 590.141708 403.317974 575.615876 412.621874zM912.075885 680.336172c-18.796088 81.848123-83.46904 140.680043-164.762531 149.871379-45.857421 5.160533-152.779615-1.179872-248.741177-143.201469-20.635993 60.626799-63.362096 113.00268-137.069819 126.998439-93.444229 17.784038-190.625572-39.019689-231.078912-134.99046-29.014824-68.807109-31.312146-134.137023-6.837732-194.189747 33.417087-81.975013 107.934245-130.425492 144.391575-150.059668-0.844228-11.754718-1.611707-24.078395-2.318812-35.465746l-1.113357-17.631566c-1.144056-17.214057 11.881608-32.100092 29.095665-33.239032 0.701988-0.051165 1.402953-0.071631 2.099824-0.071631 16.309454 0 30.0412 12.659321 31.134091 29.16218l1.13894 17.905812c1.128707 18.251689 2.415003 38.943964 3.89982 55.121412 1.25048 13.563924-6.446829 26.375717-19.008936 31.652907-0.966001 0.406253-96.952122 41.535999-131.467217 126.205377-17.987676 44.13929-15.785521 93.373621 6.548136 146.348136 32.954553 78.181617 106.33277 108.462271 161.860435 97.877191 61.643965-11.70867 99.666954-70.383 101.715613-156.953681 0.340761-14.418384 10.508331-26.721595 24.601304-29.782304 14.103206-3.019777 28.455075 3.934612 34.739199 16.909112 60.733223 125.412314 146.43 194.687074 229.391481 185.327916 54.587246-6.17156 98.116645-46.122457 110.897739-101.777011 19.537985-85.075631-36.350906-178.611957-149.500942-250.195296-2.455935-1.555425-4.682649-3.446495-6.619768-5.612834-9.745968-10.94119-20.259416-30.94171-21.627577-130.526799-0.239454-17.244756 13.553691-31.419594 30.79947-31.66314 16.996093 0 31.42471 13.563924 31.66314 30.80868 0.793062 57.571207 4.855588 80.896448 6.945179 89.194438C874.154203 454.301136 937.323918 570.399317 912.075885 680.336172zM736.957495 176.337403c-0.483001 17.244756-14.591323 30.91101-32.100092 30.351262-17.244756-0.488117-30.829146-14.855336-30.351262-32.100092 0.935302-33.351596 2.272763-64.597227 3.497661-93.250824 0.681522-15.882736 1.332345-31.002085 1.850138-45.206598-51.613518 44.423769-105.356536 88.828095-166.55741 119.739105-12.638855 6.405897-28.007891 3.456728-37.423331-7.118118-8.444323-9.497305-19.23304-26.264177-32.888038-47.494711-17.636682-27.41335-44.281529-68.837808-59.595306-81.059154-8.200776-6.517437-27.687596-19.003819-46.335305-8.113795-9.211802 71.430866-13.44215 106.865913-13.467733 163.40051-0.010233 17.244756-13.991666 31.215956-31.236422 31.215956-0.005117 0-0.010233 0-0.01535 0-17.249873-0.010233-31.231305-14.000875-31.221072-31.256888 0.030699-63.438844 5.180999-103.287411 15.44476-182.678576l0.157589-1.209548c0.899486-6.964622 4.117784-13.411451 9.136078-18.323321 37.322024-36.503379 92.178399-37.235043 136.50086-1.860371 23.335475 18.618033 49.813522 59.777455 73.169463 96.088452 4.387937 6.812149 8.836249 13.726629 12.913101 19.919678 51.638077-30.270421 99.692536-71.806419 146.363486-112.153336 12.414751-10.727319 24.77936-21.413706 37.169551-31.866778 5.739724-4.840238 12.902868-7.361665 20.147876-7.361665 4.336772 0 8.704243 0.904603 12.811794 2.755764 10.960633 4.931313 18.119683 15.709797 18.409279 27.718295 0.76748 31.541367-0.940418 71.389934-2.918469 117.542066C739.204675 112.379743 737.877447 143.311219 736.957495 176.337403z"  horiz-adv-x="1024" />

    
    <glyph glyph-name="icon3" unicode="&#58982;" d="M390.286937 613.02002c-17.247826 0-31.233352-13.984503-31.233352-31.233352l0-30.464849c0-17.252943 13.984503-31.233352 31.233352-31.233352s31.233352 13.979386 31.233352 31.233352l0 30.464849C421.520289 599.035518 407.535787 613.02002 390.286937 613.02002zM634.05587 613.02002c-17.247826 0-31.233352-13.984503-31.233352-31.233352l0-30.464849c0-17.252943 13.984503-31.233352 31.233352-31.233352s31.233352 13.979386 31.233352 31.233352l0 30.464849C665.289222 599.035518 651.304719 613.02002 634.05587 613.02002zM588.963882 471.968517c-14.544251 9.31311-33.845853 5.063319-43.148729-9.455349-0.121773-0.193405-13.379729-19.449981-33.967626-19.449981-19.993357 0-32.42755 18.107403-33.271778 19.368116-9.17087 14.436804-28.279067 18.809391-42.828434 9.760295-14.655791-9.099239-19.154245-28.355815-10.04989-43.00649 11.209296-18.046005 41.973974-48.587602 86.150102-48.587602 43.957141 0 75.098395 30.308283 86.571704 48.222281C607.722108 443.347666 603.487667 462.665641 588.963882 471.968517zM747.869009 768.884904c19.652596-0.071631 36.489052-7.060813 54.149271-22.276353 12.988826-12.057617 23.831778-33.672914 31.360242-62.501496 8.04728-30.800493 12.062733-68.098981 11.94096-111.028723 0.061398-23.414269-1.12359-48.700165-3.523243-75.144444-1.555425-17.182334 11.101849-32.371268 28.284183-33.927717 0.960885-0.091074 1.911536-0.132006 2.857071-0.132006 15.977903 0 29.596062 12.190647 31.070646 28.40698 2.572592 28.376281 3.843538 55.613622 3.777023 80.786954 0.14224 48.145533-4.559852 90.816378-13.964036 126.82857-10.69048 40.916898-27.273157 72.033593-49.757241 92.911086-0.132006 0.116657-0.681522 0.604774-0.813528 0.716314-29.382191 25.330922-60.509119 37.70474-94.634334 37.821397l-2.074242 0.020466c-48.369637 0-92.885504-25.417903-140.268674-52.472072-26.560936-15.164375-54.032614-30.841426-80.954777-40.810474-7.940856-2.857071-15.774265-4.306072-23.140023-4.306072-27.227108 0.121773-52.039213 17.314341-81.117482 37.465287l-4.946662 3.420913c-41.180911 28.670993-79.337953 52.405557-129.466654 52.405557-6.231935 0-12.175297-0.60989-17.415648-1.149173l-3.598968-0.361227c-72.984245-7.024997-122.344442-53.529147-138.987494-130.945331-10.090822-46.961568-10.090822-112.883977-10.090822-152.260799-0.005117-16.09456 0.431835-32.523741 1.301645-48.811706 0.914836-17.2335 15.692401-30.440289 32.849152-29.534663 17.223267 0.925069 30.445406 15.626909 29.52443 32.849152-0.808412 15.189957-1.214664 30.490431-1.209548 45.486984 0 36.906561 0 98.670254 8.698103 139.145084 11.051707 51.424206 37.71395 77.446883 83.897805 81.890079l4.001127 0.401136c4.112668 0.421602 8.001231 0.823761 11.224646 0.823761 31.9292 0 58.928111-17.075911 93.719498-41.298592l5.272074-3.65525c34.150798-23.663956 69.466118-48.125067 116.203582-48.338938 14.736633 0 29.683043 2.689249 44.699038 8.093329 32.011064 11.849886 61.749366 28.823466 90.766236 45.390793 39.727817 22.682605 77.248362 44.104497 109.040439 44.104497M865.281115 412.348652c-16.932648 3.213181-33.316803-7.818059-36.576033-24.76708-8.169053-42.417065-18.615986-84.793198-31.05018-125.95876-3.1569-10.462283-6.420223-21.502733-9.790994-32.94125-16.312524-55.257511-34.801621-117.885897-56.797587-165.813466-29.494755-64.255443-48.227398-64.570621-50.362015-64.346517-29.875424 2.745531-54.393841 86.175685-69.049632 136.024-11.372002 38.705534-21.197788 72.124667-35.269271 92.65219-26.703175 38.960337-71.448262 44.145429-101.857852 29.169343-49.198515-24.248264-70.004377-73.863265-88.361467-117.632117-2.785439-6.649444-5.551436-13.237489-8.458649-19.815301l-2.699482-6.212492c-9.378601-21.564132-18.234293-41.939181-26.738991-55.461149-7.990998-12.67774-12.119015-14.447037-12.129248-14.508435-0.010233 0-1.046842 0.061398-4.356214 1.63729-14.56881 6.466272-56.600089 64.062038-92.347245 173.905772-19.912515 59.85318-34.20708 115.079992-43.712571 168.833243-3.004427 16.978696-19.195178 28.294416-36.19434 25.315572-16.983813-2.99931-28.319999-19.205411-25.315572-36.19434 10.039657-56.782238 25.066909-114.89682 45.889143-177.485297 28.574802-87.801718 76.765361-189.462073 125.475759-211.076346 10.181897-4.89038 20.425192-7.381108 30.826076-7.401574 37.19104 0 57.905828 32.869618 64.733327 43.697221 11.036357 17.558911 20.806885 40.037878 31.151487 63.818491l2.622734 6.039553c2.99931 6.771217 5.916756 13.735839 8.860808 20.750603 15.494902 36.94647 30.125111 71.840188 58.378595 85.768409 0.529049 0.243547 12.744255 6.069229 22.718421-8.468882 8.458649-12.343119 17.812691-44.164872 26.855648-74.940806 23.968901-81.559551 51.139727-173.997869 123.279744-180.616614 2.343371-0.213871 4.6366-0.325411 6.918573-0.325411 84.665285 0.020466 127.738289 145.895835 165.849282 275.006378 3.334955 11.305487 6.557346 22.225187 9.68457 32.564673 13.049201 43.210128 24.009833 87.690178 32.585139 132.200928C893.306402 392.706289 882.21888 409.085328 865.281115 412.348652z"  horiz-adv-x="1024" />

    
    </font>
</defs>
</svg>
